<?xml version="1.0" encoding="UTF-8" standalone="no"?>
<svg
   id="svg"
   version="1.1"
   width="400"
   height="210"
   viewBox="0, 0, 400,210"
   sodipodi:docname="eoriginal.svg"
   inkscape:version="1.2.2 (b0a84865, 2022-12-01)"
   xmlns:inkscape="http://www.inkscape.org/namespaces/inkscape"
   xmlns:sodipodi="http://sodipodi.sourceforge.net/DTD/sodipodi-0.dtd"
   xmlns="http://www.w3.org/2000/svg"
   xmlns:svg="http://www.w3.org/2000/svg">
  <defs
     id="defs191">
    <clipPath
       clipPathUnits="userSpaceOnUse"
       id="clipPath2942">
      <path
         id="path2944"
         style="font-variation-settings:normal;opacity:1;vector-effect:none;fill:#f4ede0;fill-opacity:1;stroke-width:1;stroke-linecap:butt;stroke-linejoin:miter;stroke-miterlimit:4;stroke-dasharray:none;stroke-dashoffset:0;stroke-opacity:1;-inkscape-stroke:none;stop-color:#000000;stop-opacity:1"
         d="M 40.966797,78.226562 V 126.4707 H 348.22266 c 0.003,-0.13742 0.005,-0.27486 0.008,-0.41211 0.0153,-0.45127 0.0371,-0.90268 0.0605,-1.35351 0.001,-0.10735 0.003,-0.21492 0.004,-0.32227 -0.28388,0.0208 -0.57198,0.0638 -0.83789,-0.0234 -0.1096,-0.0359 -0.0164,-0.23059 -0.0234,-0.34571 -0.0432,-0.73685 -0.07,-1.47483 -0.0449,-2.21289 0.0124,-0.55468 0.0114,-1.1147 0.0586,-1.66797 0.0103,-0.12108 -0.0353,-0.27003 0.0449,-0.36133 0.0551,-0.0627 0.11577,-0.12515 0.17773,-0.18554 0.0212,-0.42672 0.0671,-0.89475 0.41406,-1.07813 -0.05,-0.6486 -0.10592,-1.2957 -0.17187,-1.94336 0.0394,-0.063 0.076,-0.13057 0.10937,-0.19922 -0.002,-0.007 -0.004,-0.0143 -0.006,-0.0215 -0.0363,-0.0305 -0.0744,-0.063 -0.11523,-0.0996 -0.20326,0.0267 -0.26228,-0.0765 -0.24805,-0.23047 -0.0195,-0.0187 -0.0344,-0.0331 -0.0547,-0.0527 -0.12945,-0.12554 -0.007,-0.3625 -0.01,-0.54297 -0.006,-1.02979 -0.0283,-2.05829 0.002,-3.08789 0.006,-0.21356 -0.0153,-0.43053 0.0234,-0.64063 0.0295,-0.15994 0.11864,-0.30364 0.17774,-0.45507 0.19794,-0.0997 0.37324,-0.32093 0.59375,-0.29883 0.93299,0.0934 1.08703,2.02363 1.20312,2.71289 0.0245,0.16031 0.0537,0.31958 0.0742,0.48047 9.4e-4,0.008 0.008,0.10673 0.0117,0.14648 0.0208,0.005 0.0417,0.0106 0.0625,0.0156 0.13059,-0.41318 0.26535,-0.82426 0.42773,-1.22657 0.0545,-0.13498 0.0979,-0.27811 0.17383,-0.40234 0.0971,-0.15903 0.22773,-0.29407 0.3418,-0.44141 0.25114,0.0904 0.51814,0.15019 0.7539,0.27149 0.0562,-0.13995 0.11176,-0.28017 0.16797,-0.41992 0.54933,-1.40608 0.204,-0.50962 0.71094,-1.85743 0.09,-0.2392 0.16359,-0.48512 0.27148,-0.71679 0.0926,-0.19879 0.11321,-0.52682 0.32813,-0.57032 0.0417,-0.008 0.0844,-0.0121 0.12695,-0.0137 0.29815,-0.0109 0.61119,0.13713 0.84571,0.32032 0.12282,0.0959 0.0116,0.31107 0.0176,0.46679 -0.0259,0.23242 -0.0529,0.46493 -0.0801,0.69727 0.107,-0.11851 0.17684,-0.19834 0.27929,-0.31055 0.0286,-0.29284 0.052,-0.58626 0.082,-0.87891 0.13337,-1.46318 0.21934,-2.488 0.375,-3.93945 0.0504,-0.46966 -0.016,-1.09773 0.1836,-1.50195 v -0.002 c -0.0672,-0.2128 -0.0727,-0.36121 0.0703,-0.35742 0.08,0.002 0.16494,0.0148 0.24805,0.0352 0.0915,-0.0433 0.2006,-0.0708 0.33203,-0.0781 0.13757,-0.008 0.29861,0.007 0.48828,0.0469 0.22423,0.0473 0.11288,0.36707 -0.0566,0.73047 0.0643,0.37348 -0.13282,0.78246 -0.19336,1.17383 0.0476,-0.007 0.10176,-0.019 0.16797,-0.041 -0.1165,1.21061 -0.24391,2.42021 -0.36133,3.63086 0.1067,-0.0457 0.21437,-0.0746 0.32422,-0.0781 0.17033,-0.006 0.34422,0.0736 0.51953,0.21094 0.31935,-0.57382 0.74378,-1.01053 1.31445,-1.01172 0.19467,-4e-4 0.40671,0.0498 0.63672,0.16211 0.57234,0.27955 1.04199,0.89122 1.43164,1.54688 V 78.226562 Z M 357.80078,108.95898 c -0.0167,-0.002 -0.0351,4.5e-4 -0.0527,0.006 -0.12723,0.039 -0.24122,0.13118 -0.34571,0.25586 0.0592,0.034 0.13943,0.0363 0.18555,0.0899 0.24211,0.28103 0.11419,0.73239 0.15039,1.10156 0.0154,0.15646 0.0224,0.31385 0.0352,0.4707 0.006,-0.0194 0.009,-0.0393 0.0156,-0.0586 0.36679,0.0967 0.81659,0.0407 1.10156,0.29101 0.0584,0.0513 0.0673,0.13039 0.084,0.20508 0.10663,-0.0107 0.21404,-0.0169 0.32031,-0.0117 -0.35072,-0.69723 -0.76171,-1.49319 -1.20508,-2.0625 -0.0794,-0.10192 -0.17219,-0.27461 -0.28906,-0.28711 z m -1.86914,0.85157 c -0.021,0.002 -0.0413,0.006 -0.0527,0.0137 -0.0543,0.0366 -0.10465,0.0766 -0.1543,0.11914 0.0212,0.007 0.11812,-0.0378 0.17773,-0.0508 0.01,-0.0273 0.0192,-0.0547 0.0293,-0.082 z m -0.24023,0.16406 c -0.12976,0.11586 -0.24889,0.24537 -0.3711,0.36914 -0.008,0.008 -0.0231,0.0247 -0.0312,0.0332 -0.069,0.70063 -0.13819,1.40117 -0.20898,2.10157 0.0571,-0.0813 0.11344,-0.16073 0.18164,-0.24414 0.0624,-0.18687 0.10928,-0.37708 0.16211,-0.56641 0.013,-0.0764 0.0268,-0.15045 0.0371,-0.22852 0.0332,-0.13085 0.0747,-0.29601 0.12109,-0.47656 0.0434,-0.24377 0.0894,-0.48769 0.0996,-0.73828 0.009,-0.13761 0.009,-0.21134 0.01,-0.25 z m -6.95313,1.74805 c -0.20303,0.0252 -0.13289,0.008 -0.0977,0.2832 0.0668,-0.0258 0.10862,-0.1023 0.0977,-0.2832 z m 7.92774,1.68359 c -0.006,0.002 -0.0117,0.005 -0.0176,0.008 -5.1e-4,0.002 -10e-4,0.004 -0.002,0.006 0.006,-0.005 0.0133,-0.009 0.0195,-0.0137 z m -4.44141,0.65039 c -0.008,0.10506 -0.0195,0.20965 -0.0293,0.31445 0.0249,-0.0216 0.0522,-0.0403 0.0781,-0.0605 0.008,-0.0671 0.0155,-0.13416 0.0234,-0.20117 -0.0259,-0.02 -0.0449,-0.0307 -0.0723,-0.0527 z m -2.67773,8.47656 c -0.0204,0.0116 -0.03,0.0313 -0.0527,0.041 -0.0124,0.17384 -0.0225,0.34765 -0.0332,0.52148 0.0108,-0.0156 0.024,-0.0292 0.0391,-0.041 0.016,-0.12167 0.0298,-0.24358 0.0469,-0.36524 -0.0152,-0.0456 -0.0108,-0.0999 0,-0.15625 z m 10.11718,0.8711 c -0.1517,0.10189 -0.30237,0.2073 -0.46094,0.29101 -0.15606,0.3838 -0.34009,0.751 -0.55859,0.9961 -0.0264,0.27015 -0.0548,0.54061 -0.0781,0.80664 -0.0153,0.1745 0.0748,0.40941 0.0254,0.5625 0.0232,0.11469 0.01,0.20006 -0.0801,0.22265 -0.0819,0.0205 -0.17071,0.035 -0.25977,0.043 -0.083,0.0479 -0.15551,0.0841 -0.22265,0.11524 -1.8e-4,0.01 1.7e-4,0.0195 0,0.0293 h 1.63476 z m -3.47851,1.50195 c 0.03,0.0232 0.0543,0.0471 0.0781,0.0723 -10e-4,-0.0179 -0.003,-0.0388 -0.004,-0.0566 -0.0247,-0.005 -0.0505,-0.0116 -0.0742,-0.0156 z m -3.10352,0.3418 c -0.0154,0.008 -0.0307,0.0164 -0.0469,0.0234 -0.005,0.0305 -0.008,0.0615 -0.0137,0.0918 0.0162,0.0336 0.0304,0.0681 0.0469,0.10156 0.008,0.0158 0.0185,0.0295 0.0273,0.0449 -0.003,-0.0872 -0.009,-0.17444 -0.0137,-0.26172 z m 1.69336,0.35937 c -0.23384,0.22848 -0.43976,0.34533 -0.61328,0.3418 0.004,0.17868 0.003,0.36349 -0.006,0.52148 h 0.67773 c -0.021,-0.28768 -0.0403,-0.57539 -0.0586,-0.86328 z m -4.52344,0.55078 c -0.008,0.10442 -0.0244,0.208 -0.0312,0.3125 h 0.17383 c -0.008,-0.0898 -0.0153,-0.17977 -0.0234,-0.26953 -0.0401,-0.008 -0.0797,-0.0233 -0.11914,-0.043 z" />
    </clipPath>
  </defs>
  <sodipodi:namedview
     id="namedview189"
     pagecolor="#ffffff"
     bordercolor="#000000"
     borderopacity="0.25"
     inkscape:showpageshadow="2"
     inkscape:pageopacity="0.0"
     inkscape:pagecheckerboard="0"
     inkscape:deskcolor="#d1d1d1"
     showgrid="false"
     inkscape:zoom="1.9002087"
     inkscape:cx="254.70887"
     inkscape:cy="101.56779"
     inkscape:window-width="1728"
     inkscape:window-height="1080"
     inkscape:window-x="0"
     inkscape:window-y="37"
     inkscape:window-maximized="0"
     inkscape:current-layer="svg" />
  <g
     id="svgg"
     inkscape:export-filename="eoriginal.svg"
     inkscape:export-xdpi="30.120001"
     inkscape:export-ydpi="30.120001">
    <path
       id="path0"
       d="M338.591 66.521 C 338.511 66.601,338.445 79.785,338.445 95.819 L 338.445 124.970 341.649 124.933 L 344.853 124.895 344.853 95.693 L 344.853 66.492 341.795 66.434 C 340.113 66.402,338.671 66.441,338.591 66.521 M105.672 69.423 C 105.672 69.650,105.338 69.744,104.359 69.790 C 103.446 69.834,103.062 69.933,103.099 70.116 C 103.135 70.298,102.829 70.378,102.101 70.378 C 101.307 70.378,101.050 70.455,101.050 70.693 C 101.050 70.963,100.292 71.138,99.547 71.040 C 99.472 71.030,99.295 71.161,99.154 71.330 C 99.013 71.500,98.724 71.639,98.512 71.639 C 98.299 71.639,97.956 71.818,97.750 72.036 C 97.543 72.255,97.185 72.473,96.954 72.521 C 96.723 72.570,96.557 72.722,96.586 72.859 C 96.615 72.997,96.447 73.109,96.212 73.109 C 95.977 73.109,95.731 73.251,95.664 73.424 C 95.598 73.598,95.314 73.739,95.034 73.739 C 94.754 73.739,94.470 73.881,94.404 74.055 C 94.337 74.228,94.151 74.370,93.990 74.370 C 93.829 74.370,93.697 74.512,93.697 74.685 C 93.697 74.858,93.556 75.000,93.382 75.000 C 93.209 75.000,93.067 75.142,93.067 75.315 C 93.067 75.488,92.925 75.630,92.752 75.630 C 92.577 75.630,92.437 75.817,92.437 76.050 C 92.437 76.331,92.297 76.471,92.017 76.471 C 91.783 76.471,91.597 76.611,91.597 76.786 C 91.597 76.959,91.455 77.101,91.282 77.101 C 91.108 77.101,90.966 77.243,90.966 77.416 C 90.966 77.589,90.825 77.731,90.651 77.731 C 90.478 77.731,90.336 77.826,90.336 77.941 C 90.336 78.057,90.147 78.340,89.916 78.571 C 89.685 78.803,89.401 78.992,89.286 78.992 C 89.170 78.992,89.076 79.136,89.076 79.313 C 89.076 79.490,88.934 79.689,88.761 79.756 C 88.587 79.822,88.445 80.106,88.445 80.386 C 88.445 80.723,88.285 80.955,87.973 81.071 C 87.713 81.167,87.524 81.306,87.553 81.379 C 87.679 81.700,87.585 81.929,87.347 81.880 C 87.206 81.851,87.055 82.056,87.013 82.335 C 86.971 82.613,86.803 82.974,86.641 83.137 C 86.478 83.300,86.345 83.663,86.345 83.944 C 86.345 84.257,86.223 84.454,86.029 84.454 C 85.831 84.454,85.714 84.654,85.714 84.994 C 85.714 85.291,85.572 85.676,85.399 85.849 C 85.226 86.023,85.084 86.536,85.084 86.990 C 85.084 87.561,84.993 87.815,84.787 87.815 C 84.469 87.815,84.111 89.320,84.341 89.693 C 84.413 89.809,84.279 90.070,84.043 90.272 C 83.671 90.591,83.613 90.887,83.613 92.490 C 83.613 93.963,83.547 94.366,83.290 94.465 C 82.846 94.635,82.866 100.187,83.312 100.776 C 83.503 101.028,83.602 101.770,83.607 102.983 C 83.612 104.408,83.685 104.851,83.938 104.993 C 84.148 105.110,84.288 105.562,84.337 106.278 C 84.383 106.953,84.538 107.478,84.737 107.630 C 84.916 107.766,85.091 108.256,85.126 108.718 C 85.239 110.220,85.942 110.015,87.982 107.885 C 88.930 106.896,89.709 106.017,89.712 105.932 C 89.715 105.847,89.999 105.502,90.342 105.165 C 91.085 104.435,91.342 100.420,90.645 100.420 C 90.370 100.420,90.332 100.020,90.383 97.637 C 90.427 95.546,90.507 94.866,90.704 94.905 C 90.896 94.944,90.966 94.510,90.966 93.277 C 90.966 91.923,91.028 91.597,91.282 91.597 C 91.508 91.597,91.597 91.365,91.597 90.773 C 91.597 89.800,91.777 89.242,92.039 89.404 C 92.142 89.468,92.227 89.101,92.227 88.587 C 92.227 87.831,92.306 87.633,92.647 87.544 C 92.925 87.471,93.067 87.258,93.067 86.912 C 93.067 86.625,93.209 86.335,93.382 86.269 C 93.556 86.202,93.697 85.918,93.697 85.638 C 93.697 85.358,93.839 85.075,94.013 85.008 C 94.186 84.942,94.328 84.742,94.328 84.565 C 94.328 84.388,94.470 84.244,94.643 84.244 C 94.816 84.244,94.947 84.173,94.933 84.086 C 94.842 83.507,95.003 82.983,95.273 82.983 C 95.446 82.983,95.588 82.841,95.588 82.668 C 95.588 82.495,95.730 82.353,95.903 82.353 C 96.077 82.353,96.218 82.222,96.218 82.062 C 96.218 81.902,96.408 81.722,96.639 81.662 C 96.870 81.601,97.059 81.396,97.059 81.205 C 97.059 81.014,97.147 80.912,97.254 80.978 C 97.361 81.044,97.509 80.908,97.583 80.675 C 97.657 80.443,97.853 80.252,98.018 80.252 C 98.184 80.252,98.319 80.110,98.319 79.937 C 98.319 79.764,98.461 79.622,98.634 79.622 C 98.808 79.622,98.950 79.480,98.950 79.307 C 98.950 79.037,99.473 78.875,100.053 78.967 C 100.139 78.980,100.210 78.850,100.210 78.676 C 100.210 78.485,100.406 78.361,100.710 78.361 C 100.984 78.361,101.327 78.220,101.471 78.046 C 101.614 77.873,101.862 77.731,102.022 77.731 C 102.181 77.731,102.311 77.589,102.311 77.416 C 102.311 77.230,102.505 77.100,102.784 77.098 C 103.586 77.093,104.202 76.856,104.202 76.551 C 104.202 76.346,104.483 76.261,105.154 76.261 C 105.806 76.261,106.144 76.161,106.227 75.945 C 106.319 75.705,106.711 75.630,107.878 75.630 C 109.045 75.630,109.438 75.555,109.530 75.315 C 109.627 75.061,110.103 75.000,111.975 75.000 C 113.847 75.000,114.322 75.061,114.420 75.315 C 114.512 75.556,114.907 75.630,116.094 75.630 C 117.334 75.630,117.647 75.694,117.647 75.945 C 117.647 76.183,117.904 76.261,118.697 76.261 C 119.485 76.261,119.748 76.338,119.748 76.572 C 119.748 76.743,120.007 76.948,120.324 77.027 C 120.640 77.107,121.025 77.298,121.179 77.451 C 121.333 77.605,121.644 77.731,121.870 77.731 C 122.097 77.731,122.337 77.873,122.403 78.046 C 122.472 78.226,122.785 78.361,123.132 78.361 C 123.532 78.361,123.739 78.469,123.739 78.676 C 123.739 78.850,123.881 78.992,124.055 78.992 C 124.228 78.992,124.370 79.133,124.370 79.307 C 124.370 79.480,124.441 79.607,124.527 79.588 C 124.823 79.526,125.418 79.876,125.311 80.049 C 125.252 80.144,125.400 80.284,125.640 80.360 C 125.880 80.436,126.179 80.724,126.304 80.999 C 126.429 81.274,126.613 81.450,126.711 81.389 C 126.810 81.328,126.891 81.381,126.891 81.507 C 126.891 81.633,127.222 82.068,127.626 82.472 C 128.030 82.876,128.361 83.299,128.361 83.410 C 128.361 83.522,128.503 83.613,128.676 83.613 C 128.850 83.613,128.992 83.708,128.992 83.824 C 128.992 83.939,129.179 84.221,129.407 84.449 C 129.635 84.677,129.767 85.008,129.700 85.183 C 129.631 85.364,129.718 85.554,129.902 85.625 C 130.081 85.693,130.287 86.025,130.361 86.362 C 130.435 86.699,130.630 86.975,130.794 86.975 C 130.983 86.975,131.092 87.197,131.092 87.583 C 131.092 87.929,131.228 88.242,131.408 88.311 C 131.616 88.391,131.723 88.721,131.723 89.286 C 131.723 89.851,131.829 90.180,132.038 90.260 C 132.264 90.347,132.353 90.702,132.353 91.521 C 132.353 92.340,132.442 92.694,132.668 92.781 C 132.935 92.884,132.983 93.630,132.983 97.712 C 132.983 101.847,132.939 102.521,132.668 102.521 C 132.423 102.521,132.353 102.801,132.353 103.782 C 132.353 104.762,132.283 105.042,132.038 105.042 C 131.800 105.042,131.723 105.299,131.723 106.092 C 131.723 106.886,131.646 107.143,131.408 107.143 C 131.204 107.143,131.092 107.347,131.092 107.723 C 131.092 108.075,130.928 108.405,130.672 108.565 C 130.431 108.716,130.252 109.055,130.252 109.363 C 130.252 109.689,130.164 109.845,130.028 109.760 C 129.904 109.684,129.752 109.820,129.688 110.063 C 129.625 110.306,129.484 110.504,129.375 110.504 C 129.266 110.504,129.235 110.599,129.307 110.714 C 129.378 110.830,129.336 110.924,129.214 110.924 C 129.092 110.924,128.992 111.113,128.992 111.345 C 128.992 111.578,128.852 111.765,128.676 111.765 C 128.503 111.765,128.361 111.862,128.361 111.982 C 128.361 112.101,128.078 112.476,127.731 112.815 C 127.384 113.154,127.101 113.529,127.101 113.648 C 127.101 113.768,126.959 113.866,126.786 113.866 C 126.612 113.866,126.471 114.007,126.471 114.181 C 126.471 114.354,126.329 114.496,126.155 114.496 C 125.982 114.496,125.840 114.638,125.840 114.811 C 125.840 114.984,125.693 115.126,125.513 115.126 C 125.333 115.126,125.242 115.218,125.311 115.330 C 125.381 115.442,125.197 115.594,124.904 115.668 C 124.610 115.742,124.370 115.933,124.370 116.094 C 124.370 116.255,124.228 116.387,124.055 116.387 C 123.881 116.387,123.739 116.528,123.739 116.702 C 123.739 116.912,123.529 117.017,123.103 117.017 C 122.742 117.017,122.415 117.148,122.350 117.319 C 122.286 117.485,121.958 117.682,121.621 117.756 C 121.284 117.830,121.008 118.025,121.008 118.189 C 121.008 118.380,120.783 118.487,120.378 118.487 C 119.958 118.487,119.748 118.592,119.748 118.803 C 119.748 119.041,119.491 119.118,118.697 119.118 C 117.969 119.118,117.663 119.198,117.700 119.380 C 117.738 119.571,117.251 119.659,115.933 119.703 C 114.652 119.746,114.039 119.855,113.859 120.071 C 113.492 120.513,109.973 120.507,109.529 120.063 C 109.309 119.844,108.772 119.748,107.758 119.748 C 106.604 119.748,106.303 119.683,106.303 119.433 C 106.303 119.195,106.046 119.118,105.252 119.118 C 104.458 119.118,104.202 119.041,104.202 118.803 C 104.202 118.582,103.980 118.487,103.466 118.487 C 103.013 118.487,102.751 118.393,102.784 118.240 C 102.812 118.104,102.553 117.892,102.206 117.768 C 101.859 117.645,101.451 117.426,101.298 117.281 C 101.145 117.136,100.838 117.017,100.615 117.017 C 100.392 117.017,100.210 116.875,100.210 116.702 C 100.210 116.528,100.078 116.387,99.917 116.387 C 99.756 116.387,99.570 116.245,99.504 116.071 C 99.437 115.898,99.144 115.756,98.851 115.756 C 98.518 115.756,98.319 115.638,98.319 115.441 C 98.319 115.268,98.178 115.126,98.004 115.126 C 97.831 115.126,97.689 114.995,97.689 114.835 C 97.689 114.676,97.497 114.495,97.263 114.433 C 97.028 114.372,96.863 114.200,96.895 114.051 C 96.927 113.902,96.859 113.775,96.744 113.770 C 96.365 113.753,95.588 112.824,95.588 112.388 C 95.588 112.154,95.446 111.907,95.273 111.841 C 95.100 111.774,94.958 111.588,94.958 111.427 C 94.958 111.266,94.816 111.134,94.643 111.134 C 94.470 111.134,94.328 111.014,94.328 110.866 C 94.328 110.562,93.515 109.802,93.125 109.742 C 92.984 109.720,92.275 110.365,91.549 111.174 C 90.824 111.983,89.829 113.030,89.338 113.500 C 88.396 114.401,88.122 115.435,88.761 115.680 C 88.934 115.747,89.076 115.933,89.076 116.094 C 89.076 116.255,89.217 116.387,89.391 116.387 C 89.564 116.387,89.706 116.528,89.706 116.702 C 89.706 116.875,89.848 117.017,90.021 117.017 C 90.194 117.017,90.336 117.159,90.336 117.332 C 90.336 117.505,90.478 117.647,90.651 117.647 C 90.825 117.647,90.966 117.789,90.966 117.962 C 90.966 118.136,91.108 118.277,91.282 118.277 C 91.455 118.277,91.597 118.428,91.597 118.612 C 91.597 118.796,91.786 118.996,92.017 119.057 C 92.248 119.117,92.437 119.297,92.437 119.457 C 92.437 119.617,92.579 119.748,92.752 119.748 C 92.925 119.748,93.067 119.879,93.067 120.039 C 93.067 120.198,93.266 120.381,93.509 120.445 C 93.752 120.508,93.888 120.661,93.811 120.784 C 93.735 120.908,93.823 121.008,94.007 121.008 C 94.191 121.008,94.395 121.150,94.462 121.324 C 94.528 121.497,94.799 121.639,95.063 121.639 C 95.327 121.639,95.598 121.780,95.664 121.954 C 95.731 122.127,95.930 122.269,96.107 122.269 C 96.284 122.269,96.429 122.406,96.429 122.575 C 96.429 122.757,96.722 122.935,97.157 123.017 C 97.557 123.092,97.864 123.262,97.839 123.394 C 97.814 123.526,98.078 123.666,98.424 123.705 C 98.771 123.744,99.130 123.910,99.223 124.073 C 99.323 124.250,99.725 124.370,100.221 124.370 C 100.818 124.370,101.050 124.458,101.050 124.685 C 101.050 124.917,101.293 125.000,101.973 125.000 C 102.600 125.000,102.935 125.101,103.017 125.315 C 103.106 125.547,103.473 125.630,104.405 125.630 C 105.360 125.630,105.672 125.704,105.672 125.929 C 105.672 126.685,117.978 126.632,118.231 125.875 C 118.280 125.726,118.795 125.630,119.545 125.630 C 120.401 125.630,120.829 125.538,120.947 125.327 C 121.045 125.152,121.496 125.001,122.008 124.970 C 122.574 124.937,122.899 124.818,122.899 124.644 C 122.899 124.479,123.152 124.370,123.536 124.370 C 123.908 124.370,124.223 124.239,124.294 124.055 C 124.363 123.875,124.676 123.739,125.022 123.739 C 125.423 123.739,125.630 123.632,125.630 123.424 C 125.630 123.229,125.828 123.109,126.148 123.109 C 126.451 123.109,126.759 122.935,126.891 122.689 C 127.014 122.458,127.298 122.269,127.521 122.269 C 127.744 122.269,128.217 121.985,128.571 121.639 C 128.926 121.292,129.405 121.008,129.636 121.008 C 129.866 121.008,130.110 120.867,130.176 120.693 C 130.243 120.520,130.429 120.378,130.590 120.378 C 130.751 120.378,130.882 120.236,130.882 120.063 C 130.882 119.890,130.973 119.748,131.083 119.748 C 131.343 119.748,132.353 118.738,132.353 118.478 C 132.353 118.368,132.484 118.277,132.644 118.277 C 132.803 118.277,132.986 118.079,133.050 117.836 C 133.113 117.593,133.266 117.457,133.389 117.533 C 133.513 117.609,133.613 117.524,133.613 117.344 C 133.613 117.164,133.761 117.017,133.941 117.017 C 134.121 117.017,134.224 116.945,134.170 116.857 C 134.115 116.769,134.204 116.515,134.367 116.292 C 134.530 116.069,134.668 115.975,134.672 116.084 C 134.677 116.193,134.814 115.974,134.977 115.599 C 135.140 115.223,135.379 114.916,135.506 114.916 C 135.634 114.916,135.680 114.821,135.608 114.704 C 135.536 114.588,135.625 114.436,135.805 114.367 C 135.985 114.298,136.080 114.157,136.016 114.054 C 135.952 113.950,136.000 113.866,136.122 113.866 C 136.244 113.866,136.345 113.676,136.345 113.445 C 136.345 113.212,136.485 113.025,136.660 113.025 C 136.867 113.025,136.975 112.818,136.975 112.417 C 136.975 112.071,137.110 111.758,137.290 111.689 C 137.474 111.618,137.605 111.303,137.605 110.931 C 137.605 110.505,137.709 110.294,137.920 110.294 C 138.128 110.294,138.235 110.087,138.235 109.686 C 138.235 109.329,138.371 109.027,138.564 108.953 C 138.744 108.883,138.837 108.738,138.770 108.629 C 138.703 108.521,138.745 108.373,138.862 108.300 C 138.980 108.228,139.076 107.898,139.076 107.568 C 139.076 107.238,139.190 106.930,139.329 106.883 C 139.485 106.831,139.616 106.210,139.669 105.274 C 139.727 104.245,139.848 103.714,140.041 103.640 C 140.274 103.550,140.326 102.427,140.319 97.664 C 140.313 94.036,140.234 91.845,140.112 91.921 C 139.840 92.089,139.751 91.733,139.641 90.049 C 139.590 89.256,139.437 88.539,139.302 88.455 C 139.088 88.323,138.986 87.918,138.890 86.805 C 138.876 86.654,138.781 86.582,138.677 86.646 C 138.462 86.780,138.235 86.291,138.235 85.691 C 138.235 85.465,138.093 85.227,137.920 85.160 C 137.744 85.093,137.605 84.780,137.605 84.454 C 137.605 84.127,137.466 83.815,137.290 83.748 C 137.106 83.677,136.975 83.362,136.975 82.990 C 136.975 82.592,136.876 82.373,136.712 82.405 C 136.563 82.435,136.420 82.202,136.382 81.868 C 136.345 81.543,136.179 81.226,136.014 81.163 C 135.849 81.099,135.714 80.916,135.714 80.755 C 135.714 80.594,135.580 80.462,135.416 80.462 C 135.252 80.462,135.055 80.179,134.979 79.832 C 134.903 79.485,134.706 79.202,134.542 79.202 C 134.378 79.202,134.244 79.013,134.244 78.782 C 134.244 78.548,134.104 78.361,133.929 78.361 C 133.755 78.361,133.613 78.220,133.613 78.046 C 133.613 77.873,133.519 77.731,133.403 77.731 C 133.131 77.731,132.353 76.953,132.353 76.681 C 132.353 76.565,132.211 76.471,132.038 76.471 C 131.864 76.471,131.723 76.329,131.723 76.155 C 131.723 75.871,131.473 75.747,131.040 75.815 C 130.892 75.839,130.801 75.512,130.857 75.158 C 130.871 75.071,130.741 75.000,130.567 75.000 C 130.394 75.000,130.252 74.900,130.252 74.778 C 130.252 74.655,130.158 74.613,130.042 74.685 C 129.926 74.756,129.832 74.715,129.832 74.592 C 129.832 74.470,129.643 74.370,129.412 74.370 C 129.178 74.370,128.992 74.230,128.992 74.055 C 128.992 73.881,128.860 73.739,128.699 73.739 C 128.538 73.739,128.352 73.598,128.285 73.424 C 128.215 73.240,127.900 73.109,127.528 73.109 C 127.117 73.109,126.891 73.003,126.891 72.811 C 126.891 72.647,126.615 72.452,126.278 72.378 C 125.941 72.304,125.613 72.107,125.549 71.941 C 125.486 71.775,125.204 71.639,124.924 71.639 C 124.644 71.639,124.363 71.503,124.299 71.338 C 124.236 71.172,123.871 71.007,123.489 70.970 C 123.071 70.930,122.815 70.799,122.847 70.641 C 122.882 70.463,122.603 70.378,121.976 70.378 C 121.364 70.378,121.014 70.276,120.936 70.073 C 120.855 69.862,120.414 69.749,119.496 69.706 C 118.575 69.662,118.188 69.563,118.225 69.380 C 118.266 69.175,116.905 69.118,111.975 69.118 C 106.605 69.118,105.672 69.163,105.672 69.423 M175.840 71.243 C 175.840 71.342,175.509 71.561,175.105 71.730 C 174.537 71.967,174.370 72.159,174.370 72.573 C 174.370 72.910,174.252 73.109,174.055 73.109 C 173.793 73.109,173.739 73.517,173.739 75.514 C 173.739 78.130,174.097 78.992,175.182 78.992 C 175.440 78.992,175.630 79.125,175.630 79.307 C 175.630 79.752,179.306 79.770,179.559 79.327 C 179.651 79.165,179.963 78.997,180.252 78.954 C 180.541 78.912,180.754 78.761,180.725 78.619 C 180.696 78.477,180.811 78.361,180.980 78.361 C 181.511 78.361,181.673 77.697,181.710 75.368 C 181.741 73.434,181.698 73.109,181.414 73.109 C 181.213 73.109,181.032 72.860,180.956 72.479 C 180.869 72.046,180.706 71.849,180.434 71.849 C 180.216 71.849,179.873 71.656,179.672 71.421 C 179.290 70.974,175.840 70.813,175.840 71.243 M240.470 71.324 C 240.404 71.497,240.101 71.639,239.798 71.639 C 239.423 71.639,239.211 71.773,239.137 72.059 C 239.076 72.290,238.896 72.479,238.736 72.479 C 238.567 72.479,238.445 72.696,238.445 72.997 C 238.445 73.287,238.273 73.607,238.053 73.725 C 237.456 74.044,237.434 76.385,238.023 76.934 C 238.255 77.150,238.445 77.560,238.445 77.844 C 238.445 78.129,238.545 78.361,238.667 78.361 C 238.789 78.361,239.152 78.649,239.472 79.000 L 240.055 79.638 242.139 79.577 C 243.669 79.533,244.209 79.447,244.170 79.254 C 244.141 79.110,244.307 78.992,244.538 78.992 C 244.771 78.992,244.958 78.852,244.958 78.676 C 244.958 78.503,245.089 78.361,245.249 78.361 C 245.408 78.361,245.591 78.163,245.655 77.920 C 245.718 77.677,245.864 77.537,245.979 77.608 C 246.278 77.793,246.505 75.647,246.333 74.265 C 246.233 73.471,246.094 73.109,245.888 73.109 C 245.723 73.109,245.588 72.978,245.588 72.817 C 245.588 72.656,245.446 72.470,245.273 72.403 C 245.100 72.337,244.956 72.161,244.953 72.013 C 244.937 71.178,240.772 70.538,240.470 71.324 M162.080 87.761 C 161.618 87.808,161.164 87.981,161.071 88.146 C 160.970 88.327,160.573 88.445,160.067 88.445 C 159.517 88.445,159.189 88.553,159.110 88.761 C 159.043 88.934,158.857 89.076,158.696 89.076 C 158.535 89.076,158.403 89.217,158.403 89.391 C 158.403 89.587,158.205 89.706,157.878 89.706 C 157.358 89.706,155.672 91.151,155.672 91.597 C 155.672 92.589,155.039 91.620,155.020 90.599 C 154.977 88.311,155.375 88.558,151.628 88.493 L 148.319 88.435 148.319 91.994 C 148.319 95.538,148.404 96.321,148.762 96.100 C 148.872 96.032,148.950 102.005,148.950 110.492 L 148.950 125.000 151.996 125.000 L 155.042 125.000 155.042 113.971 C 155.042 106.348,155.111 102.941,155.264 102.941 C 155.387 102.941,155.429 102.847,155.357 102.731 C 155.286 102.616,155.310 102.521,155.411 102.521 C 155.511 102.521,155.617 102.073,155.645 101.525 C 155.677 100.920,155.816 100.461,156.000 100.359 C 156.166 100.265,156.303 99.910,156.303 99.569 C 156.303 99.182,156.411 98.950,156.593 98.950 C 156.753 98.950,156.936 98.751,156.999 98.508 C 157.063 98.265,157.215 98.129,157.339 98.206 C 157.462 98.282,157.563 98.207,157.563 98.039 C 157.563 97.871,157.711 97.677,157.891 97.608 C 158.072 97.539,158.161 97.387,158.089 97.270 C 158.017 97.154,158.059 97.059,158.181 97.059 C 158.303 97.059,158.403 96.917,158.403 96.744 C 158.403 96.570,158.548 96.429,158.725 96.429 C 158.903 96.429,159.379 96.098,159.783 95.693 C 160.226 95.250,160.724 94.958,161.036 94.958 C 161.357 94.958,161.555 94.838,161.555 94.643 C 161.555 94.405,161.811 94.328,162.598 94.328 C 163.440 94.328,163.619 94.267,163.521 94.013 C 163.420 93.748,163.685 93.697,165.186 93.697 C 166.580 93.697,166.998 93.767,167.093 94.013 C 167.173 94.221,167.502 94.328,168.061 94.328 L 168.908 94.328 168.908 93.393 C 168.908 92.731,169.012 92.399,169.265 92.258 C 169.563 92.091,169.625 91.712,169.633 89.993 L 169.643 87.928 169.013 87.791 C 168.330 87.643,163.447 87.622,162.080 87.761 M204.320 87.761 C 203.750 87.805,203.183 87.974,203.060 88.136 C 202.937 88.298,202.434 88.452,201.943 88.479 C 201.374 88.510,201.050 88.627,201.050 88.802 C 201.050 88.964,200.802 89.076,200.443 89.076 C 200.108 89.076,199.786 89.204,199.725 89.361 C 199.665 89.518,199.318 89.706,198.954 89.779 C 198.584 89.852,198.350 90.005,198.423 90.124 C 198.495 90.240,198.389 90.336,198.187 90.336 C 197.703 90.336,196.432 91.210,196.430 91.544 C 196.429 91.689,196.284 91.807,196.107 91.807 C 195.930 91.807,195.731 91.949,195.664 92.122 C 195.598 92.295,195.412 92.437,195.251 92.437 C 195.090 92.437,194.958 92.579,194.958 92.752 C 194.958 92.925,194.816 93.067,194.643 93.067 C 194.470 93.067,194.328 93.209,194.328 93.382 C 194.328 93.556,194.186 93.697,194.013 93.697 C 193.839 93.697,193.697 93.829,193.697 93.990 C 193.697 94.151,193.556 94.337,193.382 94.404 C 193.198 94.474,193.067 94.789,193.067 95.161 C 193.067 95.588,192.963 95.798,192.752 95.798 C 192.579 95.798,192.437 95.893,192.437 96.008 C 192.437 96.124,192.248 96.408,192.017 96.639 C 191.786 96.870,191.597 97.240,191.597 97.461 C 191.597 97.683,191.495 97.898,191.370 97.940 C 191.245 97.981,191.093 98.391,191.031 98.850 C 190.970 99.309,190.812 99.752,190.680 99.835 C 190.407 100.006,190.398 100.051,190.362 101.471 C 190.344 102.225,190.252 102.521,190.038 102.521 C 189.792 102.521,189.735 103.203,189.715 106.410 C 189.696 109.478,189.748 110.288,189.961 110.244 C 190.151 110.205,190.262 110.594,190.336 111.555 C 190.408 112.493,190.523 112.904,190.704 112.868 C 190.874 112.834,190.966 113.074,190.966 113.550 C 190.966 114.064,191.061 114.286,191.282 114.286 C 191.494 114.286,191.597 114.498,191.597 114.936 C 191.597 115.409,191.711 115.615,192.017 115.695 C 192.314 115.773,192.437 115.982,192.437 116.411 C 192.437 116.809,192.545 117.017,192.752 117.017 C 192.925 117.017,193.067 117.159,193.067 117.332 C 193.067 117.505,193.209 117.647,193.382 117.647 C 193.579 117.647,193.697 117.846,193.697 118.179 C 193.697 118.471,193.839 118.765,194.013 118.832 C 194.186 118.898,194.329 119.061,194.331 119.193 C 194.337 119.545,195.278 120.378,195.670 120.378 C 195.856 120.378,195.985 120.496,195.956 120.641 C 195.926 120.788,196.156 120.932,196.481 120.970 C 196.812 121.008,197.059 121.165,197.059 121.337 C 197.059 121.503,197.201 121.639,197.374 121.639 C 197.547 121.639,197.689 121.780,197.689 121.954 C 197.689 122.149,197.887 122.269,198.207 122.269 C 198.510 122.269,198.818 122.443,198.950 122.689 C 199.097 122.964,199.389 123.109,199.797 123.109 C 200.211 123.109,200.420 123.215,200.420 123.424 C 200.420 123.644,200.642 123.739,201.155 123.739 C 201.618 123.739,201.871 123.833,201.838 123.993 C 201.781 124.270,201.910 124.305,203.151 124.343 C 203.701 124.361,203.973 124.461,203.939 124.632 C 203.899 124.835,204.998 124.908,208.766 124.951 C 213.058 125.001,213.631 124.969,213.523 124.689 C 213.424 124.432,213.590 124.370,214.375 124.370 C 215.047 124.370,215.387 124.272,215.470 124.055 C 215.541 123.871,215.856 123.739,216.227 123.739 C 216.930 123.739,218.169 123.064,218.355 122.580 C 218.421 122.409,218.714 122.269,219.006 122.269 C 219.339 122.269,219.538 122.151,219.538 121.954 C 219.538 121.780,219.683 121.639,219.860 121.639 C 220.036 121.639,220.236 121.497,220.302 121.324 C 220.369 121.150,220.555 121.008,220.716 121.008 C 220.877 121.008,221.008 120.907,221.008 120.783 C 221.008 120.660,221.150 120.416,221.324 120.243 C 221.604 119.963,221.639 120.326,221.639 123.514 C 221.639 126.435,221.584 127.101,221.347 127.101 C 221.186 127.101,221.059 127.219,221.065 127.363 C 221.121 128.883,220.978 129.832,220.693 129.832 C 220.520 129.832,220.389 129.903,220.403 129.989 C 220.488 130.531,220.339 131.092,220.109 131.092 C 219.961 131.092,219.819 131.337,219.795 131.636 C 219.738 132.316,219.567 132.606,219.313 132.449 C 219.206 132.383,219.118 132.457,219.118 132.614 C 219.118 132.925,216.901 135.084,216.582 135.084 C 216.474 135.084,216.387 135.226,216.387 135.399 C 216.387 135.572,216.245 135.726,216.071 135.741 C 215.402 135.796,215.316 135.827,215.171 136.059 C 215.088 136.190,214.665 136.346,214.229 136.404 C 213.794 136.462,213.310 136.615,213.155 136.745 C 212.999 136.874,212.232 137.012,211.451 137.052 C 210.404 137.105,209.979 137.215,209.836 137.469 C 209.569 137.947,206.933 137.979,206.933 137.504 C 206.933 137.180,206.212 136.911,205.537 136.982 C 204.516 137.090,203.571 136.957,203.571 136.705 C 203.571 136.557,203.321 136.415,203.015 136.390 C 202.709 136.365,202.321 136.230,202.154 136.091 C 201.987 135.953,201.649 135.808,201.403 135.771 C 201.157 135.733,200.878 135.563,200.782 135.393 C 200.687 135.223,200.378 135.084,200.095 135.084 C 199.777 135.084,199.580 134.963,199.580 134.769 C 199.580 134.596,199.448 134.454,199.287 134.454 C 199.126 134.454,198.940 134.312,198.874 134.139 C 198.807 133.965,198.524 133.824,198.245 133.824 C 197.912 133.824,197.700 133.677,197.627 133.397 C 197.565 133.163,197.393 132.997,197.244 133.030 C 197.095 133.062,196.969 132.994,196.963 132.878 C 196.951 132.600,196.066 131.723,195.798 131.723 C 195.683 131.723,195.588 131.581,195.588 131.408 C 195.588 130.847,194.142 131.005,193.564 131.628 C 193.291 131.923,193.067 132.254,193.067 132.364 C 193.067 132.473,192.925 132.563,192.752 132.563 C 192.579 132.563,192.437 132.705,192.437 132.878 C 192.437 133.051,192.303 133.193,192.139 133.193 C 191.974 133.193,191.778 133.477,191.702 133.824 C 191.626 134.170,191.429 134.454,191.265 134.454 C 191.101 134.454,190.966 134.585,190.966 134.746 C 190.966 134.907,190.825 135.093,190.651 135.160 C 190.166 135.346,190.270 136.121,190.809 136.338 C 191.069 136.442,191.197 136.534,191.093 136.541 C 190.849 136.559,191.975 137.605,192.238 137.605 C 192.347 137.605,192.437 137.720,192.437 137.861 C 192.437 138.230,193.484 139.076,193.940 139.076 C 194.153 139.076,194.328 139.217,194.328 139.391 C 194.328 139.564,194.473 139.706,194.649 139.706 C 194.826 139.706,195.026 139.848,195.092 140.021 C 195.161 140.201,195.474 140.336,195.821 140.336 C 196.221 140.336,196.429 140.444,196.429 140.651 C 196.429 140.861,196.639 140.966,197.059 140.966 C 197.477 140.966,197.689 141.072,197.689 141.279 C 197.689 141.481,197.985 141.639,198.525 141.725 C 198.985 141.799,199.470 141.989,199.602 142.148 C 199.737 142.311,200.234 142.437,200.739 142.437 C 201.342 142.437,201.675 142.540,201.757 142.752 C 201.861 143.023,202.796 143.067,208.397 143.067 C 214.052 143.067,214.916 143.025,214.916 142.752 C 214.916 142.519,215.161 142.437,215.862 142.437 C 216.407 142.437,217.141 142.259,217.592 142.017 C 218.023 141.786,218.496 141.597,218.642 141.597 C 218.788 141.597,218.908 141.455,218.908 141.282 C 218.908 141.071,219.118 140.966,219.544 140.966 C 219.917 140.966,220.231 140.835,220.302 140.651 C 220.369 140.478,220.555 140.336,220.716 140.336 C 220.877 140.336,221.008 140.194,221.008 140.021 C 221.008 139.846,221.195 139.706,221.429 139.706 C 221.660 139.706,221.849 139.606,221.849 139.483 C 221.849 139.361,221.943 139.319,222.059 139.391 C 222.174 139.462,222.269 139.420,222.269 139.298 C 222.269 139.176,222.411 139.076,222.584 139.076 C 222.757 139.076,222.899 138.978,222.899 138.858 C 222.899 138.739,223.179 138.367,223.522 138.033 C 223.864 137.698,224.205 137.181,224.280 136.884 C 224.354 136.587,224.547 136.345,224.708 136.345 C 224.868 136.345,225.000 136.155,225.000 135.924 C 225.000 135.693,225.118 135.528,225.263 135.557 C 225.409 135.586,225.554 135.360,225.590 135.047 C 225.626 134.738,225.791 134.371,225.958 134.233 C 226.124 134.095,226.261 133.768,226.261 133.505 C 226.261 133.243,226.385 132.980,226.537 132.922 C 226.709 132.856,226.832 132.390,226.862 131.692 C 226.898 130.861,227.018 130.484,227.323 130.250 C 227.728 129.938,227.735 129.559,227.729 109.189 L 227.723 88.445 224.681 88.445 L 221.639 88.445 221.639 90.534 C 221.639 91.984,221.558 92.668,221.376 92.773 C 221.232 92.857,221.183 92.848,221.267 92.755 C 221.424 92.582,220.671 91.807,220.346 91.807 C 220.248 91.807,220.168 91.672,220.168 91.508 C 220.168 91.344,219.884 91.148,219.538 91.071 C 219.191 90.995,218.908 90.799,218.908 90.635 C 218.908 90.470,218.766 90.336,218.592 90.336 C 218.419 90.336,218.277 90.190,218.277 90.012 C 218.277 89.833,218.159 89.703,218.015 89.722 C 217.381 89.804,217.017 89.683,217.017 89.391 C 217.017 89.171,216.795 89.076,216.282 89.076 C 215.768 89.076,215.546 88.981,215.546 88.761 C 215.546 88.527,215.301 88.445,214.601 88.445 C 213.946 88.445,213.655 88.358,213.655 88.161 C 213.655 87.685,208.277 87.455,204.320 87.761 M270.116 87.759 C 269.422 87.814,269.118 87.931,269.118 88.142 C 269.118 88.349,268.884 88.445,268.382 88.445 C 267.869 88.445,267.647 88.540,267.647 88.761 C 267.647 88.955,267.450 89.076,267.132 89.076 C 266.849 89.076,266.539 89.217,266.442 89.389 C 266.345 89.562,266.010 89.724,265.696 89.750 C 265.383 89.776,265.126 89.919,265.126 90.067 C 265.126 90.215,265.007 90.336,264.861 90.336 C 264.716 90.336,264.476 90.529,264.329 90.764 C 264.182 91.000,263.970 91.136,263.859 91.067 C 263.747 90.998,263.655 91.047,263.655 91.176 C 263.655 91.306,263.578 91.363,263.483 91.305 C 263.388 91.246,263.145 91.391,262.943 91.627 C 262.454 92.198,262.427 92.141,262.377 90.436 C 262.313 88.295,262.575 88.445,258.906 88.445 L 255.672 88.445 255.672 92.637 C 255.672 96.135,255.724 96.857,255.986 97.003 C 256.258 97.156,256.307 99.005,256.354 111.037 L 256.408 124.895 259.401 124.953 L 262.395 125.012 262.395 113.976 C 262.395 104.307,262.434 102.941,262.710 102.941 C 262.955 102.941,263.025 102.664,263.025 101.703 C 263.025 100.796,263.110 100.433,263.340 100.344 C 263.525 100.274,263.655 99.959,263.655 99.586 C 263.655 99.160,263.760 98.950,263.971 98.950 C 264.181 98.950,264.286 98.739,264.286 98.319 C 264.286 97.899,264.391 97.689,264.601 97.689 C 264.774 97.689,264.916 97.547,264.916 97.374 C 264.916 97.201,265.047 97.059,265.207 97.059 C 265.366 97.059,265.549 96.860,265.613 96.618 C 265.681 96.357,265.826 96.236,265.966 96.324 C 266.107 96.411,266.252 96.290,266.320 96.030 C 266.384 95.787,266.566 95.588,266.726 95.588 C 266.886 95.588,267.017 95.446,267.017 95.273 C 267.017 95.062,267.228 94.958,267.659 94.958 C 268.013 94.958,268.248 94.870,268.181 94.762 C 268.025 94.509,268.314 94.337,268.994 94.281 C 269.293 94.256,269.538 94.115,269.538 93.967 C 269.538 93.775,269.933 93.697,270.903 93.697 C 271.977 93.697,272.269 93.630,272.269 93.382 C 272.269 93.209,272.363 93.067,272.479 93.067 C 272.595 93.067,272.665 93.185,272.637 93.330 C 272.599 93.520,273.078 93.610,274.367 93.654 C 275.659 93.699,276.196 93.800,276.320 94.022 C 276.414 94.190,276.770 94.328,277.111 94.328 C 277.522 94.328,277.731 94.434,277.731 94.643 C 277.731 94.816,277.873 94.958,278.046 94.958 C 278.220 94.958,278.361 95.100,278.361 95.273 C 278.361 95.446,278.503 95.588,278.676 95.588 C 278.850 95.588,278.992 95.725,278.992 95.893 C 278.992 96.061,279.135 96.278,279.311 96.376 C 279.486 96.474,279.673 96.779,279.726 97.054 C 279.779 97.329,279.904 97.607,280.005 97.674 C 280.105 97.740,280.251 98.054,280.329 98.372 C 280.407 98.690,280.610 98.950,280.781 98.950 C 281.037 98.950,281.092 99.357,281.092 101.238 C 281.092 103.078,281.154 103.550,281.408 103.647 C 281.682 103.753,281.723 105.142,281.723 114.384 L 281.723 125.000 284.664 125.000 L 287.605 125.000 287.605 111.128 C 287.605 98.991,287.566 97.241,287.290 97.135 C 287.082 97.055,286.975 96.726,286.975 96.167 C 286.975 95.664,286.848 95.225,286.664 95.086 C 286.493 94.958,286.331 94.540,286.303 94.158 C 286.276 93.776,286.132 93.362,285.984 93.239 C 285.836 93.116,285.714 92.886,285.714 92.726 C 285.714 92.567,285.520 92.437,285.282 92.437 C 285.029 92.437,284.907 92.344,284.988 92.213 C 285.064 92.089,284.928 91.937,284.685 91.873 C 284.369 91.790,284.244 91.590,284.244 91.169 C 284.244 90.685,284.131 90.555,283.613 90.441 C 283.267 90.365,282.983 90.168,282.983 90.004 C 282.983 89.840,282.882 89.706,282.758 89.706 C 282.634 89.706,282.391 89.564,282.218 89.391 C 282.045 89.217,281.673 89.076,281.393 89.076 C 281.079 89.076,280.882 88.954,280.882 88.761 C 280.882 88.527,280.637 88.445,279.937 88.445 C 279.282 88.445,278.992 88.358,278.992 88.161 C 278.992 87.683,273.967 87.456,270.116 87.759 M308.235 87.760 C 307.513 87.811,307.080 87.945,307.004 88.142 C 306.921 88.359,306.536 88.445,305.650 88.445 C 304.689 88.445,304.412 88.516,304.412 88.761 C 304.412 89.035,303.596 89.216,302.883 89.099 C 302.793 89.084,302.665 89.214,302.598 89.389 C 302.531 89.563,302.257 89.706,301.988 89.706 C 301.720 89.706,301.359 89.848,301.185 90.021 C 301.012 90.194,300.769 90.336,300.645 90.336 C 300.521 90.336,300.420 90.470,300.420 90.635 C 300.420 90.799,300.137 90.995,299.790 91.071 C 299.443 91.148,299.160 91.344,299.160 91.508 C 299.160 91.672,299.080 91.807,298.982 91.807 C 297.540 91.807,297.443 93.695,298.816 95.067 C 299.351 95.603,299.790 96.134,299.790 96.247 C 299.790 96.361,299.891 96.391,300.014 96.315 C 300.138 96.238,300.290 96.375,300.354 96.618 C 300.417 96.860,300.600 97.059,300.760 97.059 C 300.920 97.059,301.050 97.192,301.050 97.355 C 301.050 97.703,301.323 97.682,302.258 97.262 C 302.634 97.094,302.941 96.835,302.941 96.687 C 302.941 96.539,303.219 96.363,303.558 96.295 C 303.897 96.227,304.225 96.040,304.287 95.880 C 304.348 95.719,304.543 95.588,304.720 95.588 C 304.897 95.588,305.042 95.446,305.042 95.273 C 305.042 95.063,305.252 94.958,305.672 94.958 C 306.092 94.958,306.303 94.853,306.303 94.643 C 306.303 94.369,307.262 94.181,308.036 94.303 C 308.122 94.317,308.193 94.186,308.193 94.013 C 308.193 93.755,308.555 93.697,310.189 93.697 C 311.863 93.697,312.185 93.644,312.185 93.367 C 312.185 93.067,312.215 93.067,312.515 93.367 C 312.763 93.615,313.286 93.697,314.616 93.697 C 316.050 93.697,316.387 93.757,316.387 94.013 C 316.387 94.223,316.597 94.328,317.017 94.328 C 317.413 94.328,317.647 94.435,317.647 94.618 C 317.647 94.778,317.846 94.961,318.088 95.024 C 318.331 95.088,318.467 95.241,318.391 95.364 C 318.315 95.487,318.403 95.588,318.587 95.588 C 318.771 95.588,319.000 95.801,319.096 96.061 C 319.192 96.321,319.355 96.506,319.457 96.473 C 319.559 96.439,319.690 96.703,319.748 97.059 C 319.806 97.415,319.947 97.678,320.063 97.645 C 320.181 97.611,320.301 98.118,320.336 98.803 C 320.379 99.628,320.498 100.059,320.704 100.138 C 320.912 100.218,321.008 100.579,321.008 101.283 L 321.008 102.311 315.284 102.314 C 311.950 102.316,309.427 102.402,309.244 102.521 C 309.070 102.633,309.023 102.733,309.139 102.743 C 309.896 102.807,308.247 103.124,307.090 103.136 C 305.976 103.148,305.672 103.219,305.672 103.466 C 305.672 103.700,305.427 103.782,304.727 103.782 C 304.027 103.782,303.782 103.863,303.782 104.097 C 303.782 104.307,303.571 104.412,303.145 104.412 C 302.772 104.412,302.458 104.543,302.387 104.727 C 302.320 104.900,302.037 105.042,301.757 105.042 C 301.477 105.042,301.193 105.184,301.126 105.357 C 301.060 105.530,300.885 105.672,300.737 105.672 C 300.590 105.672,300.417 105.871,300.354 106.114 C 300.290 106.356,300.144 106.497,300.029 106.426 C 299.914 106.355,299.760 106.487,299.686 106.720 C 299.612 106.952,299.416 107.143,299.251 107.143 C 299.085 107.143,298.950 107.237,298.950 107.353 C 298.950 107.618,298.175 108.403,297.912 108.403 C 297.804 108.403,297.686 108.711,297.650 109.086 C 297.610 109.495,297.479 109.748,297.321 109.716 C 297.153 109.683,297.059 109.918,297.059 110.377 C 297.059 110.816,296.938 111.136,296.744 111.210 C 296.288 111.385,296.274 117.960,296.729 118.215 C 296.901 118.311,297.058 118.786,297.097 119.328 C 297.141 119.945,297.255 120.255,297.426 120.221 C 297.571 120.192,297.689 120.357,297.689 120.588 C 297.689 120.822,297.829 121.008,298.004 121.008 C 298.179 121.008,298.319 121.195,298.319 121.429 C 298.319 121.660,298.430 121.849,298.564 121.849 C 298.699 121.849,298.753 121.905,298.684 121.974 C 298.521 122.137,299.845 123.498,300.053 123.382 C 300.139 123.334,300.210 123.395,300.210 123.517 C 300.210 123.639,300.399 123.739,300.630 123.739 C 300.864 123.739,301.050 123.880,301.050 124.055 C 301.050 124.265,301.261 124.370,301.681 124.370 C 302.101 124.370,302.311 124.475,302.311 124.685 C 302.311 124.905,302.533 125.000,303.046 125.000 C 303.560 125.000,303.782 125.095,303.782 125.315 C 303.782 125.573,304.143 125.630,305.777 125.630 C 306.919 125.630,307.773 125.717,307.773 125.833 C 307.773 125.944,307.967 126.140,308.205 126.267 C 308.798 126.584,310.924 126.314,310.924 125.921 C 310.924 125.694,311.360 125.630,312.920 125.630 C 314.554 125.630,314.916 125.573,314.916 125.315 C 314.916 125.089,315.147 125.000,315.731 125.000 C 316.198 125.000,316.657 124.866,316.807 124.685 C 316.951 124.512,317.198 124.370,317.358 124.370 C 317.517 124.370,317.647 124.228,317.647 124.055 C 317.647 123.865,317.841 123.739,318.136 123.739 C 318.437 123.739,318.859 123.458,319.238 123.004 C 319.575 122.600,319.969 122.269,320.114 122.269 C 320.259 122.269,320.378 122.127,320.378 121.954 C 320.378 121.780,320.520 121.639,320.693 121.639 C 320.904 121.639,321.008 121.849,321.008 122.276 C 321.008 122.648,321.139 122.963,321.324 123.033 C 321.537 123.115,321.639 123.451,321.639 124.077 L 321.639 125.000 324.659 125.000 L 327.679 125.000 327.715 122.923 C 327.752 120.801,327.604 119.672,327.313 119.851 C 327.224 119.907,327.100 114.730,327.039 108.348 C 326.925 96.461,326.899 95.865,326.495 95.956 C 326.353 95.988,326.261 95.678,326.261 95.168 C 326.261 94.561,326.173 94.328,325.945 94.328 C 325.735 94.328,325.630 94.118,325.630 93.697 C 325.630 93.277,325.525 93.067,325.315 93.067 C 325.140 93.067,325.000 92.880,325.000 92.647 C 325.000 92.416,324.900 92.227,324.778 92.227 C 324.655 92.227,324.613 92.132,324.685 92.017 C 324.756 91.901,324.670 91.807,324.494 91.807 C 324.295 91.807,324.219 91.687,324.294 91.492 C 324.360 91.318,324.317 91.176,324.198 91.176 C 324.079 91.176,323.703 90.897,323.361 90.556 C 323.020 90.214,322.681 89.994,322.610 90.065 C 322.538 90.137,322.479 90.086,322.479 89.951 C 322.479 89.816,322.290 89.706,322.059 89.706 C 321.825 89.706,321.639 89.566,321.639 89.391 C 321.639 89.183,321.431 89.076,321.031 89.076 C 320.684 89.076,320.371 88.940,320.302 88.761 C 320.219 88.545,319.882 88.445,319.229 88.445 C 318.568 88.445,318.277 88.358,318.277 88.160 C 318.277 87.667,312.738 87.447,308.235 87.760 M174.370 106.742 L 174.370 125.000 177.602 125.000 C 180.775 125.000,180.836 124.992,180.960 124.527 C 181.130 123.895,181.129 89.942,180.959 89.094 L 180.827 88.429 177.598 88.457 L 174.370 88.484 174.370 106.742 M239.076 106.723 L 239.076 125.000 242.017 125.000 L 244.958 125.000 244.958 106.723 L 244.958 88.445 242.017 88.445 L 239.076 88.445 239.076 106.723 M209.349 93.487 C 209.420 93.603,210.277 93.697,211.252 93.697 C 212.688 93.697,213.025 93.757,213.025 94.013 C 213.025 94.233,213.247 94.328,213.761 94.328 C 214.274 94.328,214.496 94.423,214.496 94.643 C 214.496 94.853,214.706 94.958,215.126 94.958 C 215.521 94.958,215.756 95.066,215.756 95.247 C 215.756 95.406,216.040 95.592,216.387 95.662 C 216.756 95.736,217.017 95.920,217.017 96.108 C 217.017 96.284,217.111 96.429,217.227 96.429 C 217.499 96.429,218.277 97.207,218.277 97.479 C 218.277 97.595,218.410 97.689,218.572 97.689 C 218.734 97.689,218.968 97.980,219.092 98.335 C 219.216 98.690,219.414 98.921,219.532 98.848 C 219.653 98.773,219.748 98.907,219.748 99.154 C 219.748 99.395,219.890 99.647,220.063 99.714 C 220.243 99.783,220.378 100.096,220.378 100.443 C 220.378 100.843,220.486 101.050,220.693 101.050 C 220.927 101.050,221.008 101.296,221.008 101.996 C 221.008 102.696,221.090 102.941,221.324 102.941 C 221.590 102.941,221.639 103.452,221.639 106.280 C 221.639 109.054,221.585 109.639,221.324 109.740 C 221.108 109.823,221.008 110.160,221.008 110.813 C 221.008 111.519,220.927 111.765,220.693 111.765 C 220.483 111.765,220.378 111.975,220.378 112.395 C 220.378 112.815,220.273 113.025,220.063 113.025 C 219.888 113.025,219.748 113.212,219.748 113.445 C 219.748 113.676,219.618 113.866,219.459 113.866 C 219.300 113.866,219.113 114.149,219.044 114.496 C 218.970 114.865,218.786 115.126,218.598 115.126 C 218.421 115.126,218.277 115.221,218.277 115.336 C 218.277 115.687,217.532 116.317,216.942 116.465 C 216.637 116.542,216.387 116.697,216.387 116.811 C 216.387 116.924,216.245 117.017,216.071 117.017 C 215.898 117.017,215.756 117.159,215.756 117.332 C 215.756 117.505,215.575 117.647,215.353 117.647 C 214.727 117.647,214.286 117.874,214.286 118.195 C 214.286 118.402,214.008 118.487,213.340 118.487 C 212.640 118.487,212.395 118.569,212.395 118.803 C 212.395 119.070,211.881 119.118,209.034 119.118 C 206.186 119.118,205.672 119.070,205.672 118.803 C 205.672 118.582,205.451 118.487,204.937 118.487 C 204.449 118.487,204.202 118.389,204.202 118.195 C 204.202 118.034,203.943 117.838,203.626 117.758 C 203.309 117.679,202.982 117.503,202.898 117.368 C 202.751 117.129,202.666 117.099,201.996 117.043 C 201.822 117.029,201.681 116.875,201.681 116.702 C 201.681 116.528,201.583 116.387,201.464 116.387 C 201.344 116.387,200.969 116.103,200.630 115.756 C 200.291 115.410,199.916 115.126,199.797 115.126 C 199.678 115.126,199.580 114.994,199.580 114.833 C 199.580 114.672,199.438 114.486,199.265 114.420 C 199.091 114.353,198.950 114.057,198.950 113.761 C 198.950 113.464,198.808 113.168,198.634 113.101 C 198.461 113.035,198.319 112.808,198.319 112.598 C 198.319 112.387,198.178 112.073,198.004 111.900 C 197.831 111.726,197.689 111.423,197.689 111.225 C 197.689 111.027,197.546 110.761,197.371 110.632 C 197.163 110.480,197.044 110.014,197.028 109.283 C 197.014 108.651,196.879 108.043,196.716 107.880 C 196.327 107.491,196.332 105.318,196.723 104.927 C 196.898 104.752,197.022 104.187,197.027 103.539 C 197.033 102.775,197.134 102.391,197.362 102.263 C 197.573 102.145,197.689 101.782,197.689 101.243 C 197.689 100.694,197.797 100.366,198.004 100.286 C 198.178 100.220,198.319 99.986,198.319 99.767 C 198.319 99.549,198.438 99.393,198.582 99.422 C 198.730 99.452,198.874 99.222,198.911 98.897 C 198.949 98.566,199.106 98.319,199.279 98.319 C 199.444 98.319,199.580 98.178,199.580 98.004 C 199.580 97.831,199.674 97.689,199.790 97.689 C 199.905 97.689,200.213 97.476,200.473 97.216 C 200.733 96.956,200.922 96.673,200.893 96.586 C 200.864 96.499,200.948 96.429,201.079 96.429 C 201.210 96.429,201.541 96.187,201.815 95.892 C 202.089 95.596,202.408 95.413,202.523 95.485 C 202.639 95.556,202.791 95.467,202.860 95.286 C 202.929 95.106,203.118 94.958,203.279 94.958 C 203.440 94.958,203.571 94.816,203.571 94.643 C 203.571 94.409,203.817 94.328,204.523 94.328 C 205.176 94.328,205.513 94.229,205.596 94.013 C 205.689 93.772,206.084 93.697,207.270 93.697 C 208.166 93.697,208.824 93.609,208.824 93.487 C 208.824 93.372,208.912 93.277,209.021 93.277 C 209.130 93.277,209.277 93.372,209.349 93.487 M321.008 109.454 C 321.008 110.808,320.947 111.134,320.693 111.134 C 320.448 111.134,320.378 111.415,320.378 112.402 C 320.378 113.334,320.295 113.701,320.063 113.790 C 319.883 113.859,319.748 114.172,319.748 114.518 C 319.748 114.918,319.640 115.126,319.433 115.126 C 319.259 115.126,319.118 115.308,319.118 115.530 C 319.118 115.752,318.810 116.241,318.435 116.617 C 318.059 116.992,317.748 117.401,317.743 117.526 C 317.737 117.650,317.611 117.726,317.462 117.694 C 317.313 117.661,317.141 117.827,317.079 118.061 C 317.018 118.296,316.837 118.499,316.677 118.514 C 316.024 118.573,315.945 118.603,315.792 118.850 C 315.705 118.991,315.406 119.142,315.128 119.184 C 314.850 119.226,314.587 119.371,314.542 119.505 C 314.495 119.645,314.024 119.748,313.428 119.748 C 312.650 119.748,312.395 119.826,312.395 120.063 C 312.395 120.505,309.828 120.514,309.462 120.073 C 309.309 119.889,308.736 119.743,308.018 119.705 C 307.203 119.663,306.844 119.560,306.880 119.380 C 306.909 119.236,306.862 119.129,306.775 119.143 C 306.196 119.234,305.672 119.073,305.672 118.803 C 305.672 118.624,305.484 118.487,305.240 118.487 C 305.002 118.487,304.866 118.393,304.937 118.277 C 305.008 118.162,304.983 118.067,304.880 118.067 C 304.777 118.067,304.569 117.835,304.417 117.552 C 304.265 117.269,304.037 117.056,303.909 117.079 C 303.781 117.103,303.647 116.815,303.611 116.439 C 303.570 116.016,303.430 115.756,303.243 115.756 C 302.799 115.756,302.811 113.120,303.256 112.949 C 303.430 112.883,303.571 112.589,303.571 112.297 C 303.571 111.975,303.690 111.765,303.872 111.765 C 304.038 111.765,304.233 111.576,304.307 111.345 C 304.380 111.113,304.576 110.924,304.741 110.924 C 304.907 110.924,305.042 110.783,305.042 110.609 C 305.042 110.412,305.241 110.294,305.574 110.294 C 305.866 110.294,306.160 110.152,306.227 109.979 C 306.293 109.806,306.479 109.664,306.640 109.664 C 306.801 109.664,306.933 109.522,306.933 109.349 C 306.933 109.116,307.177 109.034,307.868 109.034 C 308.463 109.034,308.864 108.924,308.972 108.731 C 309.083 108.533,309.557 108.412,310.348 108.380 C 311.187 108.346,311.555 108.246,311.555 108.052 C 311.555 107.828,312.490 107.773,316.282 107.773 L 321.008 107.773 321.008 109.454 "
       stroke="none"
       fill="#4c843c"
       fill-rule="evenodd" />
    <path
       id="path1"
       d="M338.337 95.903 C 338.337 111.618,338.362 118.015,338.393 110.120 C 338.423 102.225,338.423 89.368,338.393 81.549 C 338.362 73.729,338.337 80.189,338.337 95.903 M64.362 86.029 C 64.293 86.209,63.979 86.345,63.633 86.345 C 63.233 86.345,63.025 86.452,63.025 86.660 C 63.025 86.870,62.815 86.975,62.395 86.975 C 61.990 86.975,61.765 87.082,61.765 87.273 C 61.765 87.437,61.475 87.635,61.120 87.713 C 60.766 87.791,60.425 87.988,60.362 88.150 C 60.300 88.312,60.117 88.445,59.957 88.445 C 59.796 88.445,59.664 88.587,59.664 88.761 C 59.664 88.934,59.522 89.076,59.349 89.076 C 59.175 89.076,59.034 89.217,59.034 89.391 C 59.034 89.601,58.824 89.706,58.403 89.706 C 57.983 89.706,57.773 89.811,57.773 90.021 C 57.773 90.194,57.655 90.338,57.511 90.340 C 57.190 90.344,56.303 91.251,56.303 91.574 C 56.303 91.702,56.161 91.807,55.987 91.807 C 55.814 91.807,55.672 91.949,55.672 92.122 C 55.672 92.295,55.530 92.437,55.357 92.437 C 55.184 92.437,55.042 92.579,55.042 92.752 C 55.042 92.925,54.900 93.067,54.727 93.067 C 54.554 93.067,54.412 93.209,54.412 93.382 C 54.412 93.556,54.270 93.697,54.097 93.697 C 53.921 93.697,53.782 93.884,53.782 94.120 C 53.782 94.352,53.592 94.704,53.361 94.902 C 53.130 95.100,52.941 95.382,52.941 95.530 C 52.941 95.678,52.799 95.798,52.626 95.798 C 52.453 95.798,52.311 95.940,52.311 96.113 C 52.311 96.287,52.169 96.429,51.996 96.429 C 51.786 96.429,51.681 96.639,51.681 97.059 C 51.681 97.479,51.576 97.689,51.366 97.689 C 51.155 97.689,51.050 97.899,51.050 98.319 C 51.050 98.739,50.945 98.950,50.735 98.950 C 50.560 98.950,50.420 99.136,50.420 99.370 C 50.420 99.601,50.286 99.790,50.122 99.790 C 49.958 99.790,49.763 100.066,49.689 100.403 C 49.615 100.740,49.418 101.068,49.252 101.131 C 49.058 101.206,48.950 101.552,48.950 102.101 C 48.950 102.666,48.843 102.995,48.634 103.075 C 48.455 103.144,48.319 103.458,48.319 103.804 C 48.319 104.204,48.212 104.412,48.004 104.412 C 47.756 104.412,47.689 104.704,47.689 105.777 C 47.689 106.851,47.622 107.143,47.374 107.143 C 47.129 107.143,47.059 107.423,47.059 108.403 L 47.059 109.664 45.693 109.664 C 44.620 109.664,44.328 109.731,44.328 109.979 C 44.328 110.225,44.045 110.294,43.048 110.294 C 41.944 110.294,41.752 110.352,41.658 110.714 C 41.597 110.945,41.417 111.134,41.257 111.134 C 41.042 111.134,40.966 111.462,40.966 112.395 C 40.966 113.375,41.036 113.655,41.282 113.655 C 41.455 113.655,41.597 113.797,41.597 113.971 C 41.597 114.146,41.783 114.286,42.017 114.286 C 42.248 114.286,42.437 114.417,42.437 114.578 C 42.437 115.021,42.924 115.126,44.975 115.126 C 47.050 115.126,47.689 115.448,47.689 116.492 C 47.689 116.818,47.808 117.017,48.004 117.017 C 48.214 117.017,48.319 117.227,48.319 117.647 C 48.319 118.067,48.424 118.277,48.634 118.277 C 48.808 118.277,48.950 118.422,48.950 118.599 C 48.950 118.776,49.086 118.973,49.252 119.037 C 49.418 119.101,49.615 119.428,49.689 119.765 C 49.763 120.102,49.958 120.378,50.122 120.378 C 50.286 120.378,50.420 120.520,50.420 120.693 C 50.420 120.867,50.562 121.008,50.735 121.008 C 50.909 121.008,51.050 121.150,51.050 121.324 C 51.050 121.497,51.192 121.639,51.366 121.639 C 51.539 121.639,51.681 121.780,51.681 121.954 C 51.681 122.127,51.822 122.269,51.996 122.269 C 52.169 122.269,52.311 122.413,52.311 122.589 C 52.311 122.776,52.569 122.961,52.928 123.033 C 53.267 123.101,53.595 123.288,53.656 123.448 C 53.718 123.608,53.913 123.739,54.090 123.739 C 54.267 123.739,54.412 123.881,54.412 124.055 C 54.412 124.265,54.622 124.370,55.042 124.370 C 55.462 124.370,55.672 124.475,55.672 124.685 C 55.672 124.895,55.882 125.000,56.303 125.000 C 56.723 125.000,56.933 125.105,56.933 125.315 C 56.933 125.552,57.187 125.630,57.959 125.630 C 58.808 125.630,59.004 125.703,59.094 126.050 C 59.200 126.455,59.381 126.471,63.971 126.471 C 68.560 126.471,68.741 126.455,68.847 126.050 C 68.942 125.686,69.133 125.630,70.298 125.630 C 71.350 125.630,71.639 125.562,71.639 125.315 C 71.639 125.081,71.884 125.000,72.591 125.000 C 73.243 125.000,73.581 124.901,73.664 124.685 C 73.732 124.505,74.046 124.370,74.392 124.370 C 74.792 124.370,75.000 124.262,75.000 124.055 C 75.000 123.845,75.210 123.739,75.630 123.739 C 76.050 123.739,76.261 123.634,76.261 123.424 C 76.261 123.214,76.471 123.109,76.897 123.109 C 77.258 123.109,77.585 122.978,77.650 122.807 C 77.714 122.641,78.042 122.444,78.379 122.370 C 78.716 122.296,78.992 122.101,78.992 121.937 C 78.992 121.773,79.133 121.639,79.307 121.639 C 79.480 121.639,79.622 121.497,79.622 121.324 C 79.622 121.116,79.829 121.008,80.230 121.008 C 80.576 121.008,80.889 120.873,80.958 120.693 C 81.025 120.520,81.224 120.378,81.401 120.378 C 81.578 120.378,81.723 120.236,81.723 120.063 C 81.723 119.866,81.922 119.748,82.254 119.748 C 82.547 119.748,82.841 119.606,82.907 119.433 C 82.974 119.259,83.160 119.118,83.321 119.118 C 83.482 119.118,83.613 118.929,83.613 118.697 C 83.613 118.464,83.754 118.277,83.929 118.277 C 84.102 118.277,84.244 118.136,84.244 117.962 C 84.244 117.787,84.430 117.647,84.664 117.647 C 84.897 117.647,85.084 117.507,85.084 117.332 C 85.084 117.135,85.283 117.017,85.616 117.017 C 85.908 117.017,86.202 116.875,86.269 116.702 C 86.335 116.528,86.521 116.387,86.682 116.387 C 86.843 116.387,86.975 116.245,86.975 116.071 C 86.975 115.898,87.117 115.756,87.290 115.756 C 87.463 115.756,87.605 115.614,87.605 115.441 C 87.605 115.268,87.747 115.126,87.920 115.126 C 88.093 115.126,88.237 115.008,88.239 114.863 C 88.247 114.337,92.992 109.590,93.367 109.734 C 93.569 109.812,93.666 109.783,93.594 109.667 C 93.526 109.556,93.663 109.300,93.899 109.098 C 94.135 108.895,94.328 108.515,94.328 108.252 C 94.328 107.966,94.455 107.773,94.643 107.773 C 94.816 107.773,94.958 107.628,94.958 107.451 C 94.958 107.274,95.100 107.075,95.273 107.009 C 95.446 106.942,95.588 106.756,95.588 106.595 C 95.588 106.434,95.678 106.303,95.787 106.303 C 96.177 106.303,97.059 105.302,97.059 104.860 C 97.059 104.602,97.192 104.412,97.374 104.412 C 97.547 104.412,97.689 104.280,97.689 104.119 C 97.689 103.958,97.831 103.772,98.004 103.706 C 98.178 103.639,98.319 103.440,98.319 103.263 C 98.319 103.086,98.461 102.941,98.634 102.941 C 98.845 102.941,98.950 102.731,98.950 102.311 C 98.950 101.891,99.055 101.681,99.265 101.681 C 99.438 101.681,99.580 101.539,99.580 101.366 C 99.580 101.192,99.714 101.050,99.878 101.050 C 100.042 101.050,100.237 100.775,100.311 100.438 C 100.385 100.101,100.582 99.773,100.748 99.709 C 100.919 99.643,101.050 99.316,101.050 98.956 C 101.050 98.530,101.155 98.319,101.366 98.319 C 101.931 98.319,101.801 95.460,101.208 94.834 C 100.649 94.244,99.226 94.120,99.026 94.643 C 98.959 94.816,98.670 94.958,98.382 94.958 C 98.037 94.958,97.823 95.100,97.750 95.378 C 97.690 95.609,97.509 95.798,97.349 95.798 C 97.190 95.798,97.059 95.940,97.059 96.113 C 97.059 96.287,96.917 96.429,96.744 96.429 C 96.534 96.429,96.429 96.639,96.429 97.059 C 96.429 97.421,96.317 97.691,96.166 97.693 C 95.714 97.699,94.958 98.668,94.958 99.242 C 94.958 99.589,94.842 99.790,94.643 99.790 C 94.470 99.790,94.328 99.932,94.328 100.105 C 94.328 100.278,94.186 100.420,94.013 100.420 C 93.839 100.420,93.697 100.562,93.697 100.735 C 93.697 100.909,93.556 101.050,93.382 101.050 C 93.172 101.050,93.067 101.261,93.067 101.681 C 93.067 102.101,92.962 102.311,92.752 102.311 C 92.579 102.311,92.437 102.462,92.437 102.646 C 92.437 102.830,92.248 103.030,92.017 103.090 C 91.786 103.151,91.597 103.331,91.597 103.491 C 91.597 103.651,91.455 103.782,91.282 103.782 C 91.108 103.782,90.966 103.950,90.966 104.155 C 90.966 104.360,90.683 104.839,90.336 105.218 C 89.989 105.598,89.706 105.978,89.706 106.063 C 89.706 106.148,89.426 106.449,89.085 106.733 C 88.743 107.016,88.459 107.312,88.454 107.391 C 88.438 107.647,86.246 109.655,85.977 109.659 C 85.832 109.662,85.714 109.806,85.714 109.979 C 85.714 110.152,85.572 110.294,85.399 110.294 C 85.224 110.294,85.084 110.481,85.084 110.714 C 85.084 110.994,84.944 111.134,84.664 111.134 C 84.430 111.134,84.244 111.275,84.244 111.450 C 84.244 111.623,84.102 111.765,83.929 111.765 C 83.755 111.765,83.613 111.907,83.613 112.080 C 83.613 112.253,83.472 112.395,83.298 112.395 C 83.125 112.395,82.983 112.537,82.983 112.710 C 82.983 112.907,82.784 113.025,82.451 113.025 C 82.159 113.025,81.865 113.167,81.799 113.340 C 81.732 113.514,81.546 113.655,81.385 113.655 C 81.224 113.655,81.092 113.797,81.092 113.971 C 81.092 114.144,80.942 114.286,80.758 114.286 C 80.574 114.286,80.373 114.475,80.313 114.706 C 80.235 115.003,80.026 115.126,79.597 115.126 C 79.199 115.126,78.992 115.234,78.992 115.441 C 78.992 115.614,78.850 115.756,78.676 115.756 C 78.503 115.756,78.361 115.898,78.361 116.071 C 78.361 116.282,78.151 116.387,77.731 116.387 C 77.311 116.387,77.101 116.492,77.101 116.702 C 77.101 116.912,76.890 117.017,76.464 117.017 C 76.114 117.017,75.777 117.148,75.715 117.308 C 75.654 117.469,75.326 117.655,74.987 117.723 C 74.628 117.795,74.370 117.981,74.370 118.167 C 74.370 118.383,74.164 118.487,73.739 118.487 C 73.319 118.487,73.109 118.592,73.109 118.803 C 73.109 119.023,72.887 119.118,72.374 119.118 C 71.860 119.118,71.639 119.213,71.639 119.433 C 71.639 119.666,71.394 119.748,70.693 119.748 C 69.993 119.748,69.748 119.830,69.748 120.063 C 69.748 120.321,69.386 120.378,67.752 120.378 C 66.118 120.378,65.756 120.435,65.756 120.693 C 65.756 120.941,65.465 121.008,64.391 121.008 C 63.317 121.008,63.025 120.941,63.025 120.693 C 63.025 120.455,62.768 120.378,61.975 120.378 C 61.181 120.378,60.924 120.301,60.924 120.063 C 60.924 119.853,60.714 119.748,60.294 119.748 C 59.874 119.748,59.664 119.643,59.664 119.433 C 59.664 119.223,59.454 119.118,59.034 119.118 C 58.613 119.118,58.403 119.013,58.403 118.803 C 58.403 118.629,58.253 118.487,58.069 118.487 C 57.884 118.487,57.684 118.298,57.624 118.067 C 57.563 117.836,57.383 117.647,57.223 117.647 C 57.064 117.647,56.933 117.505,56.933 117.332 C 56.933 117.159,56.791 117.017,56.618 117.017 C 56.408 117.017,56.303 116.807,56.303 116.387 C 56.303 115.966,56.197 115.756,55.987 115.756 C 55.780 115.756,55.672 115.549,55.672 115.149 C 55.672 114.802,55.537 114.489,55.357 114.420 C 54.705 114.170,54.964 113.025,55.672 113.025 C 56.092 113.025,56.303 112.920,56.303 112.710 C 56.303 112.500,56.513 112.395,56.933 112.395 C 57.353 112.395,57.563 112.290,57.563 112.080 C 57.563 111.869,57.774 111.765,58.200 111.765 C 58.550 111.765,58.887 111.634,58.949 111.473 C 59.010 111.313,59.338 111.126,59.677 111.058 C 60.036 110.986,60.294 110.801,60.294 110.614 C 60.294 110.399,60.500 110.294,60.924 110.294 C 61.345 110.294,61.555 110.189,61.555 109.979 C 61.555 109.804,61.741 109.664,61.975 109.664 C 62.208 109.664,62.395 109.524,62.395 109.349 C 62.395 109.139,62.605 109.034,63.025 109.034 C 63.445 109.034,63.655 108.929,63.655 108.718 C 63.655 108.508,63.866 108.403,64.286 108.403 C 64.706 108.403,64.916 108.298,64.916 108.088 C 64.916 107.915,65.023 107.773,65.154 107.773 C 65.435 107.773,66.387 106.791,66.387 106.502 C 66.387 106.392,66.670 106.303,67.017 106.303 C 67.437 106.303,67.647 106.197,67.647 105.987 C 67.647 105.814,67.789 105.672,67.962 105.672 C 68.136 105.672,68.277 105.530,68.277 105.357 C 68.277 105.184,68.419 105.042,68.592 105.042 C 68.766 105.042,68.908 104.900,68.908 104.727 C 68.908 104.554,69.052 104.412,69.229 104.412 C 69.406 104.412,69.605 104.270,69.672 104.097 C 69.738 103.923,69.925 103.782,70.086 103.782 C 70.246 103.782,70.378 103.592,70.378 103.361 C 70.378 103.128,70.518 102.941,70.693 102.941 C 70.867 102.941,71.008 102.799,71.008 102.626 C 71.008 102.453,71.150 102.311,71.324 102.311 C 71.497 102.311,71.639 102.169,71.639 101.996 C 71.639 101.822,71.780 101.681,71.954 101.681 C 72.164 101.681,72.269 101.471,72.269 101.050 C 72.269 100.630,72.374 100.420,72.584 100.420 C 72.757 100.420,72.899 100.289,72.899 100.130 C 72.899 99.970,73.088 99.789,73.319 99.729 C 73.625 99.649,73.739 99.442,73.739 98.969 C 73.739 98.532,73.842 98.319,74.055 98.319 C 74.265 98.319,74.370 98.109,74.370 97.689 C 74.370 97.269,74.475 97.059,74.685 97.059 C 74.923 97.059,75.000 96.802,75.000 96.008 C 75.000 95.215,75.077 94.958,75.315 94.958 C 75.578 94.958,75.630 94.526,75.630 92.332 C 75.630 90.138,75.578 89.706,75.315 89.706 C 75.105 89.706,75.000 89.496,75.000 89.076 C 75.000 88.655,74.895 88.445,74.685 88.445 C 74.490 88.445,74.370 88.248,74.370 87.930 C 74.370 87.265,73.449 86.345,72.785 86.345 C 72.466 86.345,72.269 86.224,72.269 86.029 C 72.269 85.761,71.696 85.714,68.376 85.714 C 65.109 85.714,64.463 85.765,64.362 86.029 M69.748 91.702 C 69.748 92.785,69.682 93.067,69.428 93.067 C 69.241 93.067,69.056 93.325,68.984 93.684 C 68.916 94.023,68.729 94.351,68.569 94.413 C 68.409 94.474,68.277 94.811,68.277 95.161 C 68.277 95.588,68.173 95.798,67.962 95.798 C 67.789 95.798,67.647 95.940,67.647 96.113 C 67.647 96.287,67.505 96.429,67.332 96.429 C 67.122 96.429,67.017 96.639,67.017 97.059 C 67.017 97.479,66.912 97.689,66.702 97.689 C 66.528 97.689,66.387 97.831,66.387 98.004 C 66.387 98.178,66.245 98.319,66.071 98.319 C 65.898 98.319,65.756 98.461,65.756 98.634 C 65.756 98.808,65.606 98.950,65.422 98.950 C 65.237 98.950,65.037 99.139,64.977 99.370 C 64.916 99.601,64.736 99.790,64.576 99.790 C 64.416 99.790,64.286 99.932,64.286 100.105 C 64.286 100.278,64.144 100.420,63.971 100.420 C 63.797 100.420,63.655 100.562,63.655 100.735 C 63.655 100.909,63.514 101.050,63.340 101.050 C 63.167 101.050,63.025 101.192,63.025 101.366 C 63.025 101.539,62.883 101.681,62.710 101.681 C 62.537 101.681,62.395 101.822,62.395 101.996 C 62.395 102.191,62.197 102.311,61.877 102.311 C 61.574 102.311,61.266 102.485,61.134 102.731 C 61.011 102.962,60.771 103.151,60.602 103.151 C 60.433 103.151,60.294 103.293,60.294 103.466 C 60.294 103.640,60.152 103.782,59.979 103.782 C 59.806 103.782,59.664 103.923,59.664 104.097 C 59.664 104.307,59.454 104.412,59.034 104.412 C 58.613 104.412,58.403 104.517,58.403 104.727 C 58.403 104.900,58.262 105.042,58.088 105.042 C 57.915 105.042,57.773 105.184,57.773 105.357 C 57.773 105.577,57.551 105.672,57.038 105.672 C 56.524 105.672,56.303 105.577,56.303 105.357 C 56.303 105.184,56.444 105.042,56.618 105.042 C 56.825 105.042,56.933 104.834,56.933 104.434 C 56.933 104.088,57.068 103.774,57.248 103.706 C 57.428 103.636,57.563 103.323,57.563 102.972 C 57.563 102.537,57.684 102.328,57.983 102.250 C 58.267 102.176,58.403 101.963,58.403 101.595 C 58.403 101.251,58.519 101.050,58.718 101.050 C 58.929 101.050,59.034 100.840,59.034 100.420 C 59.034 100.000,59.139 99.790,59.349 99.790 C 59.524 99.790,59.664 99.603,59.664 99.370 C 59.664 99.136,59.804 98.950,59.979 98.950 C 60.189 98.950,60.294 98.739,60.294 98.319 C 60.294 97.899,60.399 97.689,60.609 97.689 C 60.783 97.689,60.924 97.547,60.924 97.374 C 60.924 97.201,61.014 97.059,61.124 97.059 C 61.413 97.059,62.395 96.107,62.395 95.827 C 62.395 95.696,62.537 95.588,62.710 95.588 C 62.883 95.588,63.025 95.446,63.025 95.273 C 63.025 95.100,63.167 94.958,63.340 94.958 C 63.514 94.958,63.655 94.816,63.655 94.643 C 63.655 94.470,63.797 94.328,63.971 94.328 C 64.144 94.328,64.286 94.186,64.286 94.013 C 64.286 93.839,64.428 93.697,64.601 93.697 C 64.774 93.697,64.916 93.556,64.916 93.382 C 64.916 93.209,65.058 93.067,65.231 93.067 C 65.404 93.067,65.546 92.936,65.546 92.777 C 65.546 92.617,65.735 92.437,65.966 92.376 C 66.197 92.316,66.387 92.116,66.387 91.931 C 66.387 91.747,66.528 91.597,66.702 91.597 C 66.875 91.597,67.017 91.455,67.017 91.282 C 67.017 91.071,67.227 90.966,67.647 90.966 C 68.067 90.966,68.277 90.861,68.277 90.651 C 68.277 90.431,68.499 90.336,69.013 90.336 L 69.748 90.336 69.748 91.702 M351.681 113.340 C 351.681 113.550,351.471 113.655,351.050 113.655 C 350.630 113.655,350.420 113.761,350.420 113.971 C 350.420 114.144,350.270 114.286,350.085 114.286 C 349.901 114.286,349.701 114.475,349.641 114.706 C 349.580 114.937,349.400 115.126,349.240 115.126 C 349.080 115.126,348.950 115.268,348.950 115.441 C 348.950 115.614,348.808 115.756,348.634 115.756 C 348.368 115.756,348.319 116.258,348.319 119.013 C 348.319 121.767,348.368 122.269,348.634 122.269 C 348.810 122.269,348.950 122.456,348.950 122.689 C 348.950 122.920,349.081 123.109,349.242 123.109 C 349.403 123.109,349.589 123.251,349.656 123.424 C 349.722 123.598,349.922 123.739,350.098 123.739 C 350.275 123.739,350.420 123.881,350.420 124.055 C 350.420 124.228,350.562 124.370,350.735 124.370 C 350.909 124.370,351.050 124.512,351.050 124.685 C 351.050 124.948,351.482 125.000,353.676 125.000 C 355.871 125.000,356.303 124.948,356.303 124.685 C 356.303 124.475,356.513 124.370,356.933 124.370 C 357.329 124.370,357.563 124.262,357.563 124.079 C 357.563 123.919,357.752 123.739,357.983 123.679 C 358.261 123.606,358.403 123.392,358.403 123.046 C 358.403 122.759,358.545 122.470,358.718 122.403 C 358.903 122.332,359.034 122.018,359.034 121.645 C 359.034 121.219,359.138 121.008,359.349 121.008 C 359.607 121.008,359.664 120.647,359.664 119.013 C 359.664 117.379,359.607 117.017,359.349 117.017 C 359.139 117.017,359.034 116.807,359.034 116.387 C 359.034 115.992,358.926 115.756,358.745 115.756 C 358.586 115.756,358.399 115.473,358.330 115.126 C 358.261 114.779,358.071 114.496,357.908 114.496 C 357.745 114.496,357.563 114.307,357.502 114.076 C 357.428 113.792,357.216 113.655,356.847 113.655 C 356.503 113.655,356.303 113.539,356.303 113.340 C 356.303 113.079,355.906 113.025,353.992 113.025 C 352.077 113.025,351.681 113.079,351.681 113.340 M356.933 119.013 C 356.933 120.647,356.876 121.008,356.618 121.008 C 356.360 121.008,356.303 120.647,356.303 119.013 C 356.303 117.379,356.360 117.017,356.618 117.017 C 356.876 117.017,356.933 117.379,356.933 119.013 M351.050 119.111 C 351.050 120.326,350.997 120.554,350.735 120.454 C 350.501 120.364,350.420 119.990,350.420 118.990 C 350.420 117.936,350.488 117.647,350.735 117.647 C 350.985 117.647,351.050 117.950,351.050 119.111 M354.412 121.744 L 354.412 123.109 353.676 123.109 C 352.906 123.109,352.620 122.589,353.256 122.345 C 353.470 122.263,353.571 121.928,353.571 121.301 C 353.571 120.518,353.635 120.378,353.992 120.378 C 354.369 120.378,354.412 120.518,354.412 121.744 "
       stroke="none"
       fill="#1c1c1c"
       fill-rule="evenodd"
       clip-path="url(#clipPath2942)" />
    <path
       id="path2"
       d="M326.958 98.950 C 326.958 99.701,326.996 100.008,327.043 99.632 C 327.089 99.257,327.089 98.642,327.043 98.267 C 326.996 97.891,326.958 98.199,326.958 98.950 M307.616 103.086 C 307.818 103.139,308.149 103.139,308.351 103.086 C 308.553 103.033,308.388 102.990,307.983 102.990 C 307.579 102.990,307.413 103.033,307.616 103.086 M226.971 130.555 C 226.908 130.722,226.892 131.029,226.938 131.238 C 226.989 131.475,227.061 131.361,227.129 130.935 C 227.243 130.219,227.169 130.040,226.971 130.555 "
       stroke="none"
       fill="#34882c"
       fill-rule="evenodd" />
    <path
       id="path3"
       d="M326.958 98.950 C 326.958 99.701,326.996 100.008,327.043 99.632 C 327.089 99.257,327.089 98.642,327.043 98.267 C 326.996 97.891,326.958 98.199,326.958 98.950 M307.616 103.086 C 307.818 103.139,308.149 103.139,308.351 103.086 C 308.553 103.033,308.388 102.990,307.983 102.990 C 307.579 102.990,307.413 103.033,307.616 103.086 M226.971 130.555 C 226.908 130.722,226.892 131.029,226.938 131.238 C 226.989 131.475,227.061 131.361,227.129 130.935 C 227.243 130.219,227.169 130.040,226.971 130.555 "
       stroke="none"
       fill="#34882c"
       fill-rule="evenodd" />
    <path
       id="path4"
       d="M326.958 98.950 C 326.958 99.701,326.996 100.008,327.043 99.632 C 327.089 99.257,327.089 98.642,327.043 98.267 C 326.996 97.891,326.958 98.199,326.958 98.950 M307.616 103.086 C 307.818 103.139,308.149 103.139,308.351 103.086 C 308.553 103.033,308.388 102.990,307.983 102.990 C 307.579 102.990,307.413 103.033,307.616 103.086 M226.971 130.555 C 226.908 130.722,226.892 131.029,226.938 131.238 C 226.989 131.475,227.061 131.361,227.129 130.935 C 227.243 130.219,227.169 130.040,226.971 130.555 "
       stroke="none"
       fill="#34882c"
       fill-rule="evenodd" />
  </g>
</svg>
