<svg width="287.859" height="36.469" viewBox="0 0 287.859 36.469" xmlns="http://www.w3.org/2000/svg"><g id="svgGroup" stroke-linecap="round" fill-rule="evenodd" font-size="9pt" stroke="#000" stroke-width="0.25mm" fill="#000" style="stroke:#000;stroke-width:0.25mm;fill:#000"><path d="M 4.5 1.875 L 9.891 25.242 L 10.547 29.742 L 11.508 25.688 L 18.258 1.875 L 22.055 1.875 L 28.641 25.688 L 29.578 29.813 L 30.305 25.219 L 35.602 1.875 L 40.125 1.875 L 31.852 36 L 27.75 36 L 20.719 11.133 L 20.18 8.531 L 19.641 11.133 L 12.352 36 L 8.25 36 L 0 1.875 L 4.5 1.875 Z" id="0" vector-effect="non-scaling-stroke"/><path d="M 49.148 10.641 L 49.148 36 L 44.813 36 L 44.813 10.641 L 49.148 10.641 Z M 44.61 2.976 A 2.856 2.856 0 0 0 44.461 3.914 A 3.225 3.225 0 0 0 44.474 4.204 A 2.433 2.433 0 0 0 45.105 5.672 A 1.929 1.929 0 0 0 45.505 6.004 Q 45.842 6.215 46.285 6.306 A 3.638 3.638 0 0 0 47.016 6.375 A 4.284 4.284 0 0 0 47.228 6.37 Q 47.636 6.35 47.975 6.25 A 2.094 2.094 0 0 0 48.937 5.672 A 2.357 2.357 0 0 0 49.459 4.798 A 2.788 2.788 0 0 0 49.594 3.914 A 3.272 3.272 0 0 0 49.59 3.751 A 2.527 2.527 0 0 0 48.938 2.133 A 1.992 1.992 0 0 0 48.617 1.846 Q 48.257 1.59 47.772 1.483 A 3.514 3.514 0 0 0 47.016 1.406 Q 46.516 1.406 46.114 1.519 A 2.055 2.055 0 0 0 45.105 2.133 A 2.481 2.481 0 0 0 44.61 2.976 Z" id="1" vector-effect="non-scaling-stroke"/><path d="M 60.797 0 L 60.797 36 L 56.461 36 L 56.461 0 L 60.797 0 Z" id="2" vector-effect="non-scaling-stroke"/><path d="M 72.445 0 L 72.445 36 L 68.109 36 L 68.109 0 L 72.445 0 Z" id="3" vector-effect="non-scaling-stroke"/><path d="M 84.094 10.641 L 84.094 36 L 79.758 36 L 79.758 10.641 L 84.094 10.641 Z M 79.555 2.976 A 2.856 2.856 0 0 0 79.406 3.914 A 3.225 3.225 0 0 0 79.419 4.204 A 2.433 2.433 0 0 0 80.051 5.672 A 1.929 1.929 0 0 0 80.45 6.004 Q 80.787 6.215 81.231 6.306 A 3.638 3.638 0 0 0 81.961 6.375 A 4.284 4.284 0 0 0 82.173 6.37 Q 82.581 6.35 82.92 6.25 A 2.094 2.094 0 0 0 83.883 5.672 A 2.357 2.357 0 0 0 84.404 4.798 A 2.788 2.788 0 0 0 84.539 3.914 A 3.272 3.272 0 0 0 84.535 3.751 A 2.527 2.527 0 0 0 83.883 2.133 A 1.992 1.992 0 0 0 83.562 1.846 Q 83.202 1.59 82.718 1.483 A 3.514 3.514 0 0 0 81.961 1.406 Q 81.462 1.406 81.059 1.519 A 2.055 2.055 0 0 0 80.051 2.133 A 2.481 2.481 0 0 0 79.555 2.976 Z" id="4" vector-effect="non-scaling-stroke"/><path d="M 111.234 36 L 106.688 36 A 3.371 3.371 0 0 1 106.498 35.519 Q 106.332 34.995 106.199 34.186 A 21.317 21.317 0 0 1 106.078 33.328 A 10.311 10.311 0 0 1 102.762 35.684 A 9.675 9.675 0 0 1 98.859 36.469 A 10.845 10.845 0 0 1 96.036 36.119 A 8.154 8.154 0 0 1 92.707 34.348 A 6.817 6.817 0 0 1 90.315 29.384 A 8.55 8.55 0 0 1 90.305 28.969 A 8.308 8.308 0 0 1 90.755 26.17 A 6.987 6.987 0 0 1 93.316 22.816 Q 95.635 21.129 99.406 20.741 A 23.3 23.3 0 0 1 101.789 20.625 L 106.008 20.625 L 106.008 18.633 Q 106.008 16.359 104.648 15.012 A 4.311 4.311 0 0 0 102.904 13.98 Q 102.23 13.763 101.413 13.695 A 9.324 9.324 0 0 0 100.641 13.664 A 7.602 7.602 0 0 0 98.816 13.873 A 5.695 5.695 0 0 0 96.75 14.836 A 4.563 4.563 0 0 0 95.872 15.679 A 3.159 3.159 0 0 0 95.18 17.672 L 90.82 17.672 A 5.551 5.551 0 0 1 91.487 15.066 A 7.513 7.513 0 0 1 92.168 14.004 A 8.693 8.693 0 0 1 94.602 11.842 A 10.948 10.948 0 0 1 95.824 11.203 A 11.994 11.994 0 0 1 99.961 10.202 A 14.236 14.236 0 0 1 100.898 10.172 Q 105.281 10.172 107.766 12.363 A 7.445 7.445 0 0 1 110.183 16.769 A 10.656 10.656 0 0 1 110.344 18.398 L 110.344 30.07 A 22.283 22.283 0 0 0 110.44 32.208 Q 110.538 33.224 110.736 34.078 A 9.107 9.107 0 0 0 111.234 35.625 L 111.234 36 Z M 106.008 28.898 L 106.008 23.695 L 102.609 23.695 A 20.351 20.351 0 0 0 99.901 23.859 Q 94.641 24.57 94.641 28.359 Q 94.641 30.398 96 31.547 A 4.765 4.765 0 0 0 98.205 32.577 A 6.715 6.715 0 0 0 99.492 32.695 A 7.621 7.621 0 0 0 103.359 31.641 A 7.118 7.118 0 0 0 104.936 30.428 A 5.908 5.908 0 0 0 106.008 28.898 Z" id="5" vector-effect="non-scaling-stroke"/><path d="M 117.117 10.641 L 121.219 10.641 L 121.336 13.453 A 9.141 9.141 0 0 1 127.847 10.211 A 12.794 12.794 0 0 1 128.859 10.172 A 10.713 10.713 0 0 1 131.583 10.494 A 6.636 6.636 0 0 1 136.102 14.25 A 9.607 9.607 0 0 1 139.395 11.297 A 8.8 8.8 0 0 1 142.217 10.33 A 11.784 11.784 0 0 1 144.187 10.172 A 11.303 11.303 0 0 1 147.623 10.649 Q 152.564 12.226 152.672 19.008 L 152.672 36 L 148.336 36 L 148.336 19.266 A 9.501 9.501 0 0 0 148.226 17.772 Q 148.101 16.985 147.831 16.357 A 4.042 4.042 0 0 0 147.094 15.199 A 3.624 3.624 0 0 0 145.745 14.302 Q 144.618 13.852 142.928 13.852 A 8.278 8.278 0 0 0 142.922 13.852 A 6.642 6.642 0 0 0 140.975 14.125 A 5.375 5.375 0 0 0 138.914 15.293 A 5.559 5.559 0 0 0 137.239 18.153 A 7.521 7.521 0 0 0 137.062 19.172 L 137.063 36 L 132.703 36 L 132.703 19.383 Q 132.703 15.016 129.329 14.097 A 7.77 7.77 0 0 0 127.289 13.852 Q 123.023 13.852 121.453 17.484 L 121.453 36 L 117.117 36 L 117.117 10.641 Z" id="6" vector-effect="non-scaling-stroke"/><path d="M 173.742 1.875 L 179.133 25.242 L 179.789 29.742 L 180.75 25.688 L 187.5 1.875 L 191.297 1.875 L 197.883 25.688 L 198.82 29.813 L 199.547 25.219 L 204.844 1.875 L 209.367 1.875 L 201.094 36 L 196.992 36 L 189.961 11.133 L 189.422 8.531 L 188.883 11.133 L 181.594 36 L 177.492 36 L 169.242 1.875 L 173.742 1.875 Z" id="8" vector-effect="non-scaling-stroke"/><path d="M 218.016 0 L 218.016 13.711 A 9.426 9.426 0 0 1 221.568 10.95 A 9.772 9.772 0 0 1 225.516 10.172 A 10.16 10.16 0 0 1 228.894 10.687 Q 233.571 12.333 233.625 19.242 L 233.625 36 L 229.289 36 L 229.289 19.219 Q 229.274 17.504 228.788 16.348 A 3.955 3.955 0 0 0 228.035 15.164 A 3.773 3.773 0 0 0 226.521 14.201 Q 225.911 13.982 225.158 13.901 A 8.851 8.851 0 0 0 224.203 13.852 A 6.682 6.682 0 0 0 221.993 14.208 A 5.991 5.991 0 0 0 220.5 14.977 Q 218.906 16.102 218.016 17.93 L 218.016 36 L 213.68 36 L 213.68 0 L 218.016 0 Z" id="9" vector-effect="non-scaling-stroke"/><path d="M 244.828 10.641 L 244.828 36 L 240.492 36 L 240.492 10.641 L 244.828 10.641 Z M 240.289 2.976 A 2.856 2.856 0 0 0 240.141 3.914 A 3.225 3.225 0 0 0 240.153 4.204 A 2.433 2.433 0 0 0 240.785 5.672 A 1.929 1.929 0 0 0 241.185 6.004 Q 241.522 6.215 241.965 6.306 A 3.638 3.638 0 0 0 242.695 6.375 A 4.284 4.284 0 0 0 242.908 6.37 Q 243.316 6.35 243.655 6.25 A 2.094 2.094 0 0 0 244.617 5.672 A 2.357 2.357 0 0 0 245.139 4.798 A 2.788 2.788 0 0 0 245.273 3.914 A 3.272 3.272 0 0 0 245.269 3.751 A 2.527 2.527 0 0 0 244.617 2.133 A 1.992 1.992 0 0 0 244.296 1.846 Q 243.937 1.59 243.452 1.483 A 3.514 3.514 0 0 0 242.695 1.406 Q 242.196 1.406 241.793 1.519 A 2.055 2.055 0 0 0 240.785 2.133 A 2.481 2.481 0 0 0 240.289 2.976 Z" id="10" vector-effect="non-scaling-stroke"/><path d="M 253.313 4.5 L 257.648 4.5 L 257.648 10.641 L 262.383 10.641 L 262.383 13.992 L 257.648 13.992 L 257.648 29.719 Q 257.648 30.673 257.897 31.329 A 2.349 2.349 0 0 0 258.281 32.004 A 1.872 1.872 0 0 0 259.054 32.544 Q 259.37 32.669 259.768 32.723 A 4.948 4.948 0 0 0 260.438 32.766 A 5.576 5.576 0 0 0 260.958 32.739 Q 261.505 32.687 262.251 32.536 A 21.452 21.452 0 0 0 262.5 32.484 L 262.5 36 A 13.137 13.137 0 0 1 260.192 36.423 A 11.505 11.505 0 0 1 259.172 36.469 Q 256.266 36.469 254.789 34.711 Q 253.313 32.953 253.313 29.719 L 253.313 13.992 L 248.695 13.992 L 248.695 10.641 L 253.313 10.641 L 253.313 4.5 Z" id="11" vector-effect="non-scaling-stroke"/><path d="M 266.344 24.023 L 266.344 23.227 A 16.904 16.904 0 0 1 266.751 19.445 A 13.767 13.767 0 0 1 267.785 16.488 A 11.686 11.686 0 0 1 270.172 13.152 A 10.844 10.844 0 0 1 271.816 11.848 A 10.135 10.135 0 0 1 277.43 10.172 A 12.023 12.023 0 0 1 280.7 10.593 A 8.743 8.743 0 0 1 285.117 13.43 A 10.639 10.639 0 0 1 287.085 17.102 Q 287.581 18.659 287.759 20.542 A 23.538 23.538 0 0 1 287.859 22.758 L 287.859 24.563 L 270.68 24.563 Q 270.773 28.313 272.871 30.621 A 6.837 6.837 0 0 0 277.853 32.923 A 8.81 8.81 0 0 0 278.203 32.93 A 9.405 9.405 0 0 0 279.953 32.775 Q 281.147 32.549 282.094 31.992 A 9.745 9.745 0 0 0 284.808 29.604 A 11.05 11.05 0 0 0 284.883 29.508 L 287.531 31.57 A 10.273 10.273 0 0 1 280.066 36.324 A 14.662 14.662 0 0 1 277.969 36.469 A 12.77 12.77 0 0 1 273.962 35.867 A 10.53 10.53 0 0 1 269.578 33.082 A 11.389 11.389 0 0 1 266.676 27.423 A 16.548 16.548 0 0 1 266.344 24.023 Z M 270.82 21 L 283.523 21 L 283.523 20.672 A 11.916 11.916 0 0 0 283.239 18.619 Q 282.801 16.757 281.742 15.551 A 5.243 5.243 0 0 0 278.252 13.779 A 7.411 7.411 0 0 0 277.43 13.734 A 5.899 5.899 0 0 0 274.643 14.39 A 6.08 6.08 0 0 0 273.023 15.645 Q 271.458 17.323 270.942 20.188 A 14.617 14.617 0 0 0 270.82 21 Z" id="12" vector-effect="non-scaling-stroke"/></g></svg>