<svg width="544.6" height="63.301" viewBox="0 0 544.6 63.301" xmlns="http://www.w3.org/2000/svg"><g id="svgGroup" stroke-linecap="round" fill-rule="evenodd" font-size="9pt" stroke="#000" stroke-width="0.25mm" fill="#000" style="stroke:#000;stroke-width:0.25mm;fill:#fff"><path d="M 68.9 16.9 L 64.1 34.7 Q 62.618 40.629 61.478 44.605 A 161.286 161.286 0 0 1 61.45 44.7 Q 60.502 47.997 59.792 50.071 A 46.611 46.611 0 0 1 59.5 50.9 Q 59.225 51.519 58.808 52.303 A 38.855 38.855 0 0 1 58.4 53.05 Q 57.7 54.3 56.75 55.55 Q 55.8 56.8 54.65 57.65 A 5.12 5.12 0 0 1 53.83 58.152 Q 53.105 58.5 52.4 58.5 A 5.499 5.499 0 0 1 48.779 57.108 Q 47.956 56.415 47.211 55.375 A 14.405 14.405 0 0 1 46.4 54.1 A 24.753 24.753 0 0 1 45.554 52.607 Q 44.721 51.025 43.766 48.797 A 88.192 88.192 0 0 1 43.45 48.05 A 177.022 177.022 0 0 1 42.149 44.842 Q 41.581 43.402 40.969 41.792 A 350.208 350.208 0 0 1 39.7 38.4 A 852.257 852.257 0 0 0 38.711 35.752 Q 35.463 27.1 35.2 27.1 Q 34.8 27.1 30.3 38.7 Q 28.243 43.889 26.826 47.317 A 310.124 310.124 0 0 1 26.5 48.1 Q 25.025 51.641 24.227 53.053 A 11.117 11.117 0 0 1 24.2 53.1 A 16.647 16.647 0 0 1 22.809 55.186 Q 20.577 58 18 58 A 3.675 3.675 0 0 1 16.204 57.522 A 4.778 4.778 0 0 1 15.7 57.2 A 9.902 9.902 0 0 1 13.928 55.532 A 11.21 11.21 0 0 1 13.7 55.25 Q 12.8 54.1 12.1 52.8 Q 11.63 51.927 11.34 51.234 A 9.161 9.161 0 0 1 11.1 50.6 Q 10.64 49.219 9.713 46.184 A 584.152 584.152 0 0 1 9.55 45.65 A 439.89 439.89 0 0 1 8.486 42.097 Q 7.932 40.219 7.331 38.13 A 719.766 719.766 0 0 1 7.25 37.85 Q 6 33.5 4.7 28.8 Q 3.4 24.1 2.35 20.05 A 396.885 396.885 0 0 1 1.619 17.189 Q 1.338 16.07 1.096 15.072 A 189.625 189.625 0 0 1 0.65 13.2 A 114.403 114.403 0 0 1 0.429 12.231 Q 0.053 10.544 0.007 10.024 A 1.427 1.427 0 0 1 0 9.9 L 0 8.7 Q 0 5.576 2.241 5.41 A 3.501 3.501 0 0 1 2.5 5.4 A 9.469 9.469 0 0 1 4.083 5.524 Q 5.576 5.778 6.55 6.55 Q 8 7.7 9.4 10.4 A 4.91 4.91 0 0 1 9.468 10.586 Q 9.75 11.389 10.802 14.773 A 900.678 900.678 0 0 1 10.95 15.25 Q 11.984 18.581 13.633 24.168 A 1670.95 1670.95 0 0 1 14.7 27.8 A 466.561 466.561 0 0 0 15.889 31.668 Q 19.838 44.3 20.8 44.3 A 0.634 0.634 0 0 0 21.211 44.104 Q 21.891 43.489 22.8 40.95 Q 23.832 38.071 24.937 34.343 A 186.815 186.815 0 0 0 25.3 33.1 Q 26.6 28.6 27.6 23.95 Q 28.424 20.118 28.773 17.678 A 36.536 36.536 0 0 0 28.9 16.7 A 319.492 319.492 0 0 1 29.118 14.856 Q 29.206 14.131 29.289 13.48 A 164.271 164.271 0 0 1 29.45 12.25 A 13.381 13.381 0 0 1 29.687 10.954 Q 29.836 10.327 30.038 9.799 A 6.679 6.679 0 0 1 30.3 9.2 Q 30.9 8 32 7.45 Q 33.1 6.9 35 6.9 Q 36.736 6.9 37.975 7.345 A 5.199 5.199 0 0 1 38.85 7.75 Q 40.3 8.6 41.15 10.05 A 11.32 11.32 0 0 1 41.955 11.746 A 15.438 15.438 0 0 1 42.5 13.5 Q 43 15.5 43.4 17.9 Q 43.783 19.738 44.547 22.718 A 263.918 263.918 0 0 0 45.05 24.65 Q 46.2 29 47.45 33.3 Q 48.456 36.761 49.43 39.476 A 68.797 68.797 0 0 0 49.9 40.75 Q 50.917 43.42 51.36 43.827 A 0.225 0.225 0 0 0 51.5 43.9 Q 53.9 43.9 59.3 22.8 A 1060.764 1060.764 0 0 1 60.013 19.989 Q 62.375 10.725 62.9 9.5 Q 64.447 5.548 66.879 4.992 A 3.67 3.67 0 0 1 67.7 4.9 Q 70.6 4.9 70.6 8.9 A 8.529 8.529 0 0 1 70.519 9.967 Q 70.277 11.835 69.318 15.39 A 123.999 123.999 0 0 1 68.9 16.9 Z" id="0" vector-effect="non-scaling-stroke"/><path d="M 88 62.7 L 85.8 62.7 A 5.157 5.157 0 0 1 84.053 62.413 A 4.607 4.607 0 0 1 82.7 61.65 Q 81.708 60.849 81.473 59.903 A 2.489 2.489 0 0 1 81.4 59.3 A 3.568 3.568 0 0 1 81.439 58.825 Q 81.575 57.832 82.2 55.8 A 13.642 13.642 0 0 0 82.818 53.087 A 11.798 11.798 0 0 0 82.9 51.7 L 83.1 48.4 L 83.1 31.5 A 26.43 26.43 0 0 0 82.946 30.045 Q 82.762 28.693 82.46 27.774 A 7.168 7.168 0 0 0 82.4 27.6 L 82 26.7 Q 81.179 24.602 81.107 24.335 A 0.168 0.168 0 0 1 81.1 24.3 L 81.1 23.4 Q 81.1 20.9 86.3 20.9 L 87.8 20.9 Q 89.4 20.9 90.2 21.2 A 1.761 1.761 0 0 1 91.08 21.932 A 2.74 2.74 0 0 1 91.35 22.5 A 5.154 5.154 0 0 1 91.532 23.182 Q 91.715 24.094 91.75 25.5 Q 91.8 27.5 91.8 30.9 L 91.8 40.7 L 92.1 46.8 Q 92.1 51.9 94.2 55.5 Q 95 57.1 95 58.7 A 2.886 2.886 0 0 1 94.012 60.886 Q 93.62 61.25 93.074 61.559 A 6.493 6.493 0 0 1 93 61.6 A 8.365 8.365 0 0 1 90.77 62.421 Q 89.512 62.7 88 62.7 Z M 87.3 2.4 L 88.8 2.4 Q 90.6 2.4 91.95 3.5 A 3.516 3.516 0 0 1 93.141 5.418 Q 93.29 6.005 93.3 6.706 A 7.055 7.055 0 0 1 93.3 6.8 L 93.3 7.8 Q 93.3 9.6 92.15 11 A 3.697 3.697 0 0 1 89.45 12.388 A 4.886 4.886 0 0 1 89.1 12.4 L 88.3 12.5 L 86.9 12.5 Q 86.594 12.424 85.996 12.406 A 13.216 13.216 0 0 0 85.6 12.4 A 1.547 1.547 0 0 1 85.007 12.271 Q 84.431 12.031 83.75 11.35 A 3.903 3.903 0 0 1 83.08 10.474 A 3.014 3.014 0 0 1 82.7 9 L 82.5 7.6 L 82.5 7.4 L 82.7 6 A 2.273 2.273 0 0 1 82.852 5.217 Q 83.108 4.518 83.8 3.7 A 3.39 3.39 0 0 1 85.329 2.688 Q 86.171 2.4 87.3 2.4 Z" id="1" vector-effect="non-scaling-stroke"/><path d="M 111.8 0 L 112.5 0 A 7.569 7.569 0 0 1 114.117 0.158 Q 116.469 0.674 116.931 2.876 A 4.996 4.996 0 0 1 117 3.3 L 117 17.4 L 116.8 22.3 L 116.8 26.4 L 116.7 27.2 L 116.7 33.7 L 116.8 39.2 A 2.681 2.681 0 0 1 116.834 39.49 Q 116.9 40.338 116.9 43.1 A 28.754 28.754 0 0 0 117.245 47.451 A 35.022 35.022 0 0 0 117.7 49.85 A 26.139 26.139 0 0 0 118.302 52.084 Q 118.642 53.145 119.044 54.014 A 11.024 11.024 0 0 0 119.8 55.4 Q 120.653 56.713 120.947 57.853 A 4.603 4.603 0 0 1 121.1 59 A 2.343 2.343 0 0 1 120.635 60.378 Q 120.198 60.993 119.35 61.55 Q 117.6 62.7 114.2 62.7 L 112.7 62.7 A 11.374 11.374 0 0 1 110.474 62.502 Q 106.6 61.725 106.6 57.9 A 1.395 1.395 0 0 1 106.606 57.787 Q 106.62 57.622 106.668 57.337 A 14.583 14.583 0 0 1 106.7 57.15 A 46.777 46.777 0 0 1 106.757 56.847 Q 106.821 56.506 106.912 56.044 A 180.02 180.02 0 0 1 107 55.6 A 7.479 7.479 0 0 0 107.106 54.996 Q 107.189 54.383 107.23 53.539 A 29.636 29.636 0 0 0 107.25 53 Q 107.298 51.385 107.39 48.957 A 858.635 858.635 0 0 1 107.4 48.7 L 107.6 38.4 L 107.7 37.6 L 107.7 32.7 L 107.8 31.9 L 107.8 23.7 L 107.9 22.1 L 107.9 14 Q 107.9 9.754 107.224 7.31 A 9.842 9.842 0 0 0 107 6.6 Q 106.236 4.022 106.202 3.45 A 0.83 0.83 0 0 1 106.2 3.4 Q 106.2 0 111.8 0 Z" id="2" vector-effect="non-scaling-stroke"/><path d="M 137.3 0 L 138 0 A 7.569 7.569 0 0 1 139.617 0.158 Q 141.969 0.674 142.431 2.876 A 4.996 4.996 0 0 1 142.5 3.3 L 142.5 17.4 L 142.3 22.3 L 142.3 26.4 L 142.2 27.2 L 142.2 33.7 L 142.3 39.2 A 2.681 2.681 0 0 1 142.334 39.49 Q 142.4 40.338 142.4 43.1 A 28.754 28.754 0 0 0 142.745 47.451 A 35.022 35.022 0 0 0 143.2 49.85 A 26.139 26.139 0 0 0 143.802 52.084 Q 144.142 53.145 144.544 54.014 A 11.024 11.024 0 0 0 145.3 55.4 Q 146.153 56.713 146.447 57.853 A 4.603 4.603 0 0 1 146.6 59 A 2.343 2.343 0 0 1 146.135 60.378 Q 145.698 60.993 144.85 61.55 Q 143.1 62.7 139.7 62.7 L 138.2 62.7 A 11.374 11.374 0 0 1 135.974 62.502 Q 132.1 61.725 132.1 57.9 A 1.395 1.395 0 0 1 132.106 57.787 Q 132.12 57.622 132.168 57.337 A 14.583 14.583 0 0 1 132.2 57.15 A 46.777 46.777 0 0 1 132.257 56.847 Q 132.321 56.506 132.412 56.044 A 180.02 180.02 0 0 1 132.5 55.6 A 7.479 7.479 0 0 0 132.606 54.996 Q 132.689 54.383 132.73 53.539 A 29.636 29.636 0 0 0 132.75 53 Q 132.798 51.385 132.89 48.957 A 858.635 858.635 0 0 1 132.9 48.7 L 133.1 38.4 L 133.2 37.6 L 133.2 32.7 L 133.3 31.9 L 133.3 23.7 L 133.4 22.1 L 133.4 14 Q 133.4 9.754 132.724 7.31 A 9.842 9.842 0 0 0 132.5 6.6 Q 131.736 4.022 131.702 3.45 A 0.83 0.83 0 0 1 131.7 3.4 Q 131.7 0 137.3 0 Z" id="3" vector-effect="non-scaling-stroke"/><path d="M 163.5 62.7 L 161.3 62.7 A 5.157 5.157 0 0 1 159.553 62.413 A 4.607 4.607 0 0 1 158.2 61.65 Q 157.208 60.849 156.973 59.903 A 2.489 2.489 0 0 1 156.9 59.3 A 3.568 3.568 0 0 1 156.939 58.825 Q 157.075 57.832 157.7 55.8 A 13.642 13.642 0 0 0 158.318 53.087 A 11.798 11.798 0 0 0 158.4 51.7 L 158.6 48.4 L 158.6 31.5 A 26.43 26.43 0 0 0 158.446 30.045 Q 158.262 28.693 157.96 27.774 A 7.168 7.168 0 0 0 157.9 27.6 L 157.5 26.7 Q 156.679 24.602 156.607 24.335 A 0.168 0.168 0 0 1 156.6 24.3 L 156.6 23.4 Q 156.6 20.9 161.8 20.9 L 163.3 20.9 Q 164.9 20.9 165.7 21.2 A 1.761 1.761 0 0 1 166.58 21.932 A 2.74 2.74 0 0 1 166.85 22.5 A 5.154 5.154 0 0 1 167.032 23.182 Q 167.215 24.094 167.25 25.5 Q 167.3 27.5 167.3 30.9 L 167.3 40.7 L 167.6 46.8 Q 167.6 51.9 169.7 55.5 Q 170.5 57.1 170.5 58.7 A 2.886 2.886 0 0 1 169.512 60.886 Q 169.12 61.25 168.574 61.559 A 6.493 6.493 0 0 1 168.5 61.6 A 8.365 8.365 0 0 1 166.27 62.421 Q 165.012 62.7 163.5 62.7 Z M 162.8 2.4 L 164.3 2.4 Q 166.1 2.4 167.45 3.5 A 3.516 3.516 0 0 1 168.641 5.418 Q 168.79 6.005 168.8 6.706 A 7.055 7.055 0 0 1 168.8 6.8 L 168.8 7.8 Q 168.8 9.6 167.65 11 A 3.697 3.697 0 0 1 164.95 12.388 A 4.886 4.886 0 0 1 164.6 12.4 L 163.8 12.5 L 162.4 12.5 Q 162.094 12.424 161.496 12.406 A 13.216 13.216 0 0 0 161.1 12.4 A 1.547 1.547 0 0 1 160.507 12.271 Q 159.931 12.031 159.25 11.35 A 3.903 3.903 0 0 1 158.58 10.474 A 3.014 3.014 0 0 1 158.2 9 L 158 7.6 L 158 7.4 L 158.2 6 A 2.273 2.273 0 0 1 158.352 5.217 Q 158.608 4.518 159.3 3.7 A 3.39 3.39 0 0 1 160.829 2.688 Q 161.671 2.4 162.8 2.4 Z" id="4" vector-effect="non-scaling-stroke"/><path d="M 191.5 63.2 L 190.5 63.2 Q 188.2 63.2 186.1 62.4 Q 184 61.6 182.45 60.1 A 11.5 11.5 0 0 1 180.102 56.825 A 13.183 13.183 0 0 1 179.95 56.5 A 10.581 10.581 0 0 1 179.123 53.564 A 13.681 13.681 0 0 1 179 51.7 A 12.782 12.782 0 0 1 180.558 45.269 Q 183.328 40.401 191.029 38.57 A 33.353 33.353 0 0 1 192.8 38.2 A 2367.895 2367.895 0 0 0 194.913 37.777 Q 201.825 36.388 202 36.3 A 3.713 3.713 0 0 0 203.985 33.62 A 6.073 6.073 0 0 0 204.1 32.4 A 7.628 7.628 0 0 0 203.783 30.15 A 6.11 6.11 0 0 0 202.3 27.65 A 5.96 5.96 0 0 0 199.126 25.963 A 8.697 8.697 0 0 0 197.4 25.8 A 12.348 12.348 0 0 0 194.448 26.183 Q 193.106 26.514 191.65 27.13 A 25.291 25.291 0 0 0 190.2 27.8 A 51.439 51.439 0 0 1 188.492 28.619 Q 186.113 29.7 184.907 29.869 A 2.951 2.951 0 0 1 184.5 29.9 A 2.879 2.879 0 0 1 183.186 29.62 Q 181.984 29.012 181.754 27.083 A 8.345 8.345 0 0 1 181.7 26.1 Q 181.7 25.107 182.523 24.113 A 5.969 5.969 0 0 1 182.9 23.7 A 9.217 9.217 0 0 1 184.201 22.63 Q 184.874 22.167 185.694 21.75 A 16.499 16.499 0 0 1 186.1 21.55 A 19.841 19.841 0 0 1 188.467 20.616 A 26.297 26.297 0 0 1 190.7 20 Q 193.3 19.4 196.1 19.4 L 198.3 19.4 Q 202.5 19.4 205.75 21 Q 209 22.6 210.7 25.3 Q 212.878 28.523 213.159 39.409 A 131.737 131.737 0 0 1 213.2 42.8 A 323.547 323.547 0 0 0 213.211 45.514 Q 213.256 50.894 213.496 52.376 A 5.368 5.368 0 0 0 213.5 52.4 A 9.188 9.188 0 0 0 214.818 55.918 A 10.696 10.696 0 0 0 215 56.2 Q 215.722 57.382 215.97 58.391 A 4.229 4.229 0 0 1 216.1 59.4 Q 216.1 62.3 210.3 62.3 A 2.813 2.813 0 0 1 209.968 62.278 Q 209.533 62.226 208.9 62.05 A 11.299 11.299 0 0 1 208.289 61.86 Q 207.61 61.629 206.723 61.253 A 36.176 36.176 0 0 1 206.6 61.2 A 43.612 43.612 0 0 0 205.689 60.861 Q 204.26 60.348 203.549 60.233 A 2.249 2.249 0 0 0 203.2 60.2 A 2.178 2.178 0 0 0 202.791 60.253 Q 201.751 60.465 198.954 61.527 A 112.842 112.842 0 0 0 198.5 61.7 Q 194.6 63.2 191.5 63.2 Z M 194.4 57.4 L 195.7 57.4 A 10.003 10.003 0 0 0 198.522 57.023 A 7.516 7.516 0 0 0 202.15 54.7 Q 204.052 52.516 204.415 48.76 A 19.348 19.348 0 0 0 204.5 46.9 L 204.5 45.2 A 5.528 5.528 0 0 0 204.382 44.003 Q 203.936 42 201.8 42 L 200.5 42 L 197.1 42.3 A 11.895 11.895 0 0 0 194.143 42.65 A 8.731 8.731 0 0 0 190.55 44.5 A 7.815 7.815 0 0 0 188.899 46.436 A 6.497 6.497 0 0 0 188 49.8 L 188 51.3 A 6.125 6.125 0 0 0 189.286 55.05 A 7.966 7.966 0 0 0 189.65 55.5 Q 191.3 57.4 194.4 57.4 Z" id="5" vector-effect="non-scaling-stroke"/><path d="M 226.4 55.2 L 226.6 53.7 L 227.4 50.8 Q 228 48.2 228 44.1 L 228.2 32 L 228.2 24.3 A 1.974 1.974 0 0 1 229.556 22.841 Q 229.973 22.691 230.511 22.634 A 6.635 6.635 0 0 1 231.2 22.6 L 239.3 23.4 Q 240.363 23.4 242.347 22.882 A 39.335 39.335 0 0 0 243.7 22.5 A 19.927 19.927 0 0 1 247.662 21.717 A 24.877 24.877 0 0 1 250.1 21.6 A 11.436 11.436 0 0 1 252.908 21.98 Q 255.4 22.613 258.4 24.3 A 26.999 26.999 0 0 0 259.03 24.674 Q 260.294 25.4 260.7 25.4 Q 262.184 25.4 265.645 23.595 A 47.971 47.971 0 0 0 266.2 23.3 A 19.741 19.741 0 0 1 269.303 21.941 Q 271.21 21.304 273.013 21.215 A 11.847 11.847 0 0 1 273.6 21.2 A 17.477 17.477 0 0 1 276.167 21.378 Q 277.518 21.579 278.634 22.007 A 8.64 8.64 0 0 1 280.05 22.7 Q 282.5 24.2 283.8 26.65 A 16.581 16.581 0 0 1 285.162 30.167 A 20.69 20.69 0 0 1 285.6 32.25 Q 286.1 35.4 286.2 38.6 L 286.3 42.2 Q 286.3 44.079 286.34 45.357 A 51.195 51.195 0 0 0 286.35 45.65 Q 286.4 47 286.5 48.1 A 19.123 19.123 0 0 0 286.664 49.417 A 15.75 15.75 0 0 0 286.8 50.15 A 18.891 18.891 0 0 0 286.978 50.912 Q 287.15 51.588 287.4 52.4 A 14.986 14.986 0 0 1 287.726 53.333 Q 287.957 54.075 288.05 54.7 Q 288.19 55.634 288.2 56.393 A 8.746 8.746 0 0 1 288.2 56.5 A 3.599 3.599 0 0 1 287.347 58.823 A 5.111 5.111 0 0 1 286.85 59.35 A 4.641 4.641 0 0 1 284.253 60.545 A 6.334 6.334 0 0 1 283.4 60.6 A 8.084 8.084 0 0 1 282.008 60.49 Q 281.273 60.361 280.729 60.081 A 2.683 2.683 0 0 1 279.3 58.3 A 0.617 0.617 0 0 1 279.257 58.175 Q 279.206 57.972 279.201 57.585 A 6.687 6.687 0 0 1 279.2 57.5 Q 279.2 57.093 279.154 56.546 A 20.897 20.897 0 0 0 279.1 56 A 22.159 22.159 0 0 0 279.093 55.429 Q 279.085 55.117 279.068 54.842 A 11.982 11.982 0 0 0 279.05 54.6 Q 279 54 279 53.7 L 278.7 50.7 Q 277.604 37.547 276.675 34.573 A 4.158 4.158 0 0 0 276.5 34.1 A 9.599 9.599 0 0 0 275.263 31.664 Q 273.341 29 269.8 29 A 6.394 6.394 0 0 0 267.346 29.45 Q 265.788 30.091 264.779 31.648 A 7.949 7.949 0 0 0 264.3 32.5 Q 262.3 36.8 262.3 48.6 A 29.148 29.148 0 0 0 262.32 49.686 A 24.482 24.482 0 0 0 262.35 50.3 Q 262.4 51.1 262.5 51.9 L 262.7 53.4 A 345.818 345.818 0 0 1 262.817 54.036 Q 263.2 56.125 263.2 56.3 A 5.054 5.054 0 0 1 261.623 60.036 A 6.455 6.455 0 0 1 261.45 60.2 Q 259.975 61.549 257.4 61.761 A 12.189 12.189 0 0 1 256.4 61.8 A 15.457 15.457 0 0 1 255.071 61.748 Q 252.951 61.564 252.232 60.738 A 1.602 1.602 0 0 1 252.2 60.7 Q 251.61 59.913 251.407 59.212 A 2.553 2.553 0 0 1 251.3 58.5 A 6.026 6.026 0 0 1 251.321 58.015 Q 251.343 57.751 251.386 57.451 A 12.702 12.702 0 0 1 251.45 57.05 A 310.043 310.043 0 0 1 251.591 56.259 Q 251.664 55.854 251.745 55.405 A 532.505 532.505 0 0 1 251.8 55.1 A 477.381 477.381 0 0 1 251.943 54.318 Q 252 54.009 252.052 53.73 A 255.516 255.516 0 0 1 252.15 53.2 A 11.866 11.866 0 0 0 252.229 52.73 Q 252.296 52.276 252.3 51.947 A 3.475 3.475 0 0 0 252.3 51.9 A 2.652 2.652 0 0 0 252.334 51.655 Q 252.395 51.049 252.4 49.52 A 85.737 85.737 0 0 0 252.4 49.25 L 252.4 43 Q 252.4 36.846 251.72 33.414 A 14.515 14.515 0 0 0 251.25 31.6 A 5.282 5.282 0 0 0 250.2 29.735 Q 249.23 28.656 247.647 28.336 A 7.294 7.294 0 0 0 246.2 28.2 A 7.676 7.676 0 0 0 241.527 29.794 A 10.041 10.041 0 0 0 240.9 30.3 Q 238.678 32.245 237.828 34.446 A 8.022 8.022 0 0 0 237.7 34.8 A 14.541 14.541 0 0 0 237.039 37.353 Q 236 43.046 236 56.8 A 4.762 4.762 0 0 1 235.775 58.332 Q 235.039 60.5 231.9 60.5 A 8.246 8.246 0 0 1 229.757 60.247 Q 226.4 59.341 226.4 55.2 Z" id="6" vector-effect="non-scaling-stroke"/><path d="M 391.8 16.9 L 387 34.7 Q 385.518 40.629 384.378 44.605 A 161.286 161.286 0 0 1 384.35 44.7 Q 383.402 47.997 382.692 50.071 A 46.611 46.611 0 0 1 382.4 50.9 Q 382.125 51.519 381.708 52.303 A 38.855 38.855 0 0 1 381.3 53.05 Q 380.6 54.3 379.65 55.55 Q 378.7 56.8 377.55 57.65 A 5.12 5.12 0 0 1 376.73 58.152 Q 376.005 58.5 375.3 58.5 A 5.499 5.499 0 0 1 371.679 57.108 Q 370.856 56.415 370.111 55.375 A 14.405 14.405 0 0 1 369.3 54.1 A 24.753 24.753 0 0 1 368.454 52.607 Q 367.621 51.025 366.666 48.797 A 88.192 88.192 0 0 1 366.35 48.05 A 177.022 177.022 0 0 1 365.049 44.842 Q 364.481 43.402 363.869 41.792 A 350.208 350.208 0 0 1 362.6 38.4 A 852.257 852.257 0 0 0 361.611 35.752 Q 358.363 27.1 358.1 27.1 Q 357.7 27.1 353.2 38.7 Q 351.143 43.889 349.726 47.317 A 310.124 310.124 0 0 1 349.4 48.1 Q 347.925 51.641 347.127 53.053 A 11.117 11.117 0 0 1 347.1 53.1 A 16.647 16.647 0 0 1 345.709 55.186 Q 343.477 58 340.9 58 A 3.675 3.675 0 0 1 339.104 57.522 A 4.778 4.778 0 0 1 338.6 57.2 A 9.902 9.902 0 0 1 336.828 55.532 A 11.21 11.21 0 0 1 336.6 55.25 Q 335.7 54.1 335 52.8 Q 334.53 51.927 334.24 51.234 A 9.161 9.161 0 0 1 334 50.6 Q 333.54 49.219 332.613 46.184 A 584.152 584.152 0 0 1 332.45 45.65 A 439.89 439.89 0 0 1 331.386 42.097 Q 330.832 40.219 330.231 38.13 A 719.766 719.766 0 0 1 330.15 37.85 Q 328.9 33.5 327.6 28.8 Q 326.3 24.1 325.25 20.05 A 396.885 396.885 0 0 1 324.519 17.189 Q 324.238 16.07 323.996 15.072 A 189.625 189.625 0 0 1 323.55 13.2 A 114.403 114.403 0 0 1 323.329 12.231 Q 322.953 10.544 322.907 10.024 A 1.427 1.427 0 0 1 322.9 9.9 L 322.9 8.7 Q 322.9 5.576 325.141 5.41 A 3.501 3.501 0 0 1 325.4 5.4 A 9.469 9.469 0 0 1 326.983 5.524 Q 328.476 5.778 329.45 6.55 Q 330.9 7.7 332.3 10.4 A 4.91 4.91 0 0 1 332.368 10.586 Q 332.65 11.389 333.702 14.773 A 900.678 900.678 0 0 1 333.85 15.25 Q 334.884 18.581 336.533 24.168 A 1670.95 1670.95 0 0 1 337.6 27.8 A 466.561 466.561 0 0 0 338.789 31.668 Q 342.738 44.3 343.7 44.3 A 0.634 0.634 0 0 0 344.111 44.104 Q 344.791 43.489 345.7 40.95 Q 346.732 38.071 347.837 34.343 A 186.815 186.815 0 0 0 348.2 33.1 Q 349.5 28.6 350.5 23.95 Q 351.324 20.118 351.673 17.678 A 36.536 36.536 0 0 0 351.8 16.7 A 319.492 319.492 0 0 1 352.018 14.856 Q 352.106 14.131 352.189 13.48 A 164.271 164.271 0 0 1 352.35 12.25 A 13.381 13.381 0 0 1 352.587 10.954 Q 352.736 10.327 352.938 9.799 A 6.679 6.679 0 0 1 353.2 9.2 Q 353.8 8 354.9 7.45 Q 356 6.9 357.9 6.9 Q 359.636 6.9 360.875 7.345 A 5.199 5.199 0 0 1 361.75 7.75 Q 363.2 8.6 364.05 10.05 A 11.32 11.32 0 0 1 364.855 11.746 A 15.438 15.438 0 0 1 365.4 13.5 Q 365.9 15.5 366.3 17.9 Q 366.683 19.738 367.447 22.718 A 263.918 263.918 0 0 0 367.95 24.65 Q 369.1 29 370.35 33.3 Q 371.356 36.761 372.33 39.476 A 68.797 68.797 0 0 0 372.8 40.75 Q 373.817 43.42 374.26 43.827 A 0.225 0.225 0 0 0 374.4 43.9 Q 376.8 43.9 382.2 22.8 A 1060.764 1060.764 0 0 1 382.913 19.989 Q 385.275 10.725 385.8 9.5 Q 387.347 5.548 389.779 4.992 A 3.67 3.67 0 0 1 390.6 4.9 Q 393.5 4.9 393.5 8.9 A 8.529 8.529 0 0 1 393.419 9.967 Q 393.177 11.835 392.218 15.39 A 123.999 123.999 0 0 1 391.8 16.9 Z" id="8" vector-effect="non-scaling-stroke"/><path d="M 432.9 57.7 L 432.9 56.7 L 433 55.7 L 433 53.4 L 432.6 43 Q 432.6 39.819 432.365 37.395 A 32.29 32.29 0 0 0 432.15 35.65 A 19.889 19.889 0 0 0 431.781 33.79 Q 431.558 32.904 431.267 32.172 A 8.515 8.515 0 0 0 430.7 31 A 6.604 6.604 0 0 0 429.681 29.665 A 5.164 5.164 0 0 0 428.15 28.6 A 7.473 7.473 0 0 0 426.452 28.078 Q 425.509 27.9 424.4 27.9 A 7.732 7.732 0 0 0 421.261 28.586 A 10.168 10.168 0 0 0 419.85 29.35 A 8.588 8.588 0 0 0 417.461 31.693 A 12.024 12.024 0 0 0 416.3 33.8 A 7.264 7.264 0 0 0 415.81 35.393 Q 415.199 38.279 415.049 44.775 A 201.157 201.157 0 0 0 415 49.4 A 27.46 27.46 0 0 0 415.042 50.863 Q 415.113 52.175 415.3 53.8 Q 415.4 54.9 415.4 55.8 A 3.947 3.947 0 0 1 415.461 56.086 Q 415.5 56.313 415.5 56.5 A 6.468 6.468 0 0 1 415.266 58.286 A 4.957 4.957 0 0 1 414.05 60.4 A 4.039 4.039 0 0 1 414.028 60.424 Q 412.857 61.615 410.694 61.845 A 10.343 10.343 0 0 1 409.6 61.9 L 408.5 61.9 A 8.486 8.486 0 0 1 406.858 61.756 Q 404.258 61.241 404.023 58.885 A 4.897 4.897 0 0 1 404 58.4 L 404 57.3 Q 404 56.779 404.377 55.353 A 37.789 37.789 0 0 1 404.5 54.9 L 405.1 52.5 A 23.344 23.344 0 0 0 405.431 50.318 Q 405.9 46.099 405.9 37.6 L 405.9 21.3 L 406.1 11.7 L 406.2 10.4 L 406.2 7.8 L 406.2 6.65 Q 406.2 6.1 406 5.6 L 405.8 4.7 A 82.756 82.756 0 0 1 405.73 4.369 Q 405.5 3.275 405.5 3.1 Q 405.5 1.245 407.566 1.111 A 5.166 5.166 0 0 1 407.9 1.1 L 409 1.1 A 12.009 12.009 0 0 1 410.263 1.162 Q 411.571 1.301 412.4 1.75 A 4.009 4.009 0 0 1 414.08 3.498 A 5.05 5.05 0 0 1 414.2 3.75 A 7.69 7.69 0 0 1 414.626 5.014 Q 414.786 5.653 414.877 6.398 A 15.406 15.406 0 0 1 414.95 7.15 A 105.878 105.878 0 0 1 415.072 9.069 Q 415.126 10.053 415.171 11.154 A 187.413 187.413 0 0 1 415.2 11.9 A 140.091 140.091 0 0 1 415.329 13.895 Q 415.374 14.682 415.404 15.396 A 75.473 75.473 0 0 1 415.45 16.75 Q 415.488 18.3 415.612 19.478 A 19.465 19.465 0 0 0 415.7 20.2 Q 416.2 23 417.5 23 A 2.204 2.204 0 0 0 417.761 22.984 Q 417.887 22.969 418.027 22.94 A 4.231 4.231 0 0 0 418.2 22.9 A 5.642 5.642 0 0 0 418.569 22.794 Q 418.757 22.733 418.962 22.655 A 9.89 9.89 0 0 0 419.1 22.6 L 420.1 22.2 Q 423.746 20.626 426.843 20.356 A 14.484 14.484 0 0 1 428.1 20.3 Q 431.2 20.3 433.447 21.122 A 9.937 9.937 0 0 1 434.55 21.6 A 8.793 8.793 0 0 1 437.966 24.734 A 11.277 11.277 0 0 1 438.55 25.75 A 16.645 16.645 0 0 1 439.579 28.319 Q 439.993 29.639 440.289 31.196 A 35.199 35.199 0 0 1 440.6 33.15 Q 441.2 37.7 441.2 44.2 A 42.784 42.784 0 0 0 441.327 47.589 Q 441.459 49.245 441.728 50.671 A 20.983 20.983 0 0 0 442.1 52.3 A 86.136 86.136 0 0 1 442.406 53.487 Q 443 55.869 443 56.6 A 6.093 6.093 0 0 1 442.704 58.587 Q 441.735 61.4 437.6 61.4 A 10.828 10.828 0 0 1 436.349 61.333 Q 435.01 61.177 434.205 60.657 A 2.971 2.971 0 0 1 434.05 60.55 A 2.626 2.626 0 0 1 433.128 59.254 Q 432.972 58.798 432.923 58.235 A 6.171 6.171 0 0 1 432.9 57.7 Z" id="9" vector-effect="non-scaling-stroke"/><path d="M 460.6 62.7 L 458.4 62.7 A 5.157 5.157 0 0 1 456.653 62.413 A 4.607 4.607 0 0 1 455.3 61.65 Q 454.308 60.849 454.073 59.903 A 2.489 2.489 0 0 1 454 59.3 A 3.568 3.568 0 0 1 454.039 58.825 Q 454.175 57.832 454.8 55.8 A 13.642 13.642 0 0 0 455.418 53.087 A 11.798 11.798 0 0 0 455.5 51.7 L 455.7 48.4 L 455.7 31.5 A 26.43 26.43 0 0 0 455.546 30.045 Q 455.362 28.693 455.06 27.774 A 7.168 7.168 0 0 0 455 27.6 L 454.6 26.7 Q 453.779 24.602 453.707 24.335 A 0.168 0.168 0 0 1 453.7 24.3 L 453.7 23.4 Q 453.7 20.9 458.9 20.9 L 460.4 20.9 Q 462 20.9 462.8 21.2 A 1.761 1.761 0 0 1 463.68 21.932 A 2.74 2.74 0 0 1 463.95 22.5 A 5.154 5.154 0 0 1 464.132 23.182 Q 464.315 24.094 464.35 25.5 Q 464.4 27.5 464.4 30.9 L 464.4 40.7 L 464.7 46.8 Q 464.7 51.9 466.8 55.5 Q 467.6 57.1 467.6 58.7 A 2.886 2.886 0 0 1 466.612 60.886 Q 466.22 61.25 465.674 61.559 A 6.493 6.493 0 0 1 465.6 61.6 A 8.365 8.365 0 0 1 463.37 62.421 Q 462.112 62.7 460.6 62.7 Z M 459.9 2.4 L 461.4 2.4 Q 463.2 2.4 464.55 3.5 A 3.516 3.516 0 0 1 465.741 5.418 Q 465.89 6.005 465.9 6.706 A 7.055 7.055 0 0 1 465.9 6.8 L 465.9 7.8 Q 465.9 9.6 464.75 11 A 3.697 3.697 0 0 1 462.05 12.388 A 4.886 4.886 0 0 1 461.7 12.4 L 460.9 12.5 L 459.5 12.5 Q 459.194 12.424 458.596 12.406 A 13.216 13.216 0 0 0 458.2 12.4 A 1.547 1.547 0 0 1 457.607 12.271 Q 457.031 12.031 456.35 11.35 A 3.903 3.903 0 0 1 455.68 10.474 A 3.014 3.014 0 0 1 455.3 9 L 455.1 7.6 L 455.1 7.4 L 455.3 6 A 2.273 2.273 0 0 1 455.452 5.217 Q 455.708 4.518 456.4 3.7 A 3.39 3.39 0 0 1 457.929 2.688 Q 458.771 2.4 459.9 2.4 Z" id="10" vector-effect="non-scaling-stroke"/><path d="M 494.3 62.6 L 492.7 62.6 Q 486.4 62.6 484 57.8 A 17.7 17.7 0 0 1 482.735 54.293 Q 481.6 49.875 481.6 43 A 137.879 137.879 0 0 0 481.534 38.54 Q 481.337 32.48 480.556 29.601 A 12.113 12.113 0 0 0 480.5 29.4 Q 480 27.9 478.3 26.2 Q 476.894 24.794 476.651 23.661 A 2.195 2.195 0 0 1 476.6 23.2 L 476.6 22.6 Q 476.6 21.63 478.484 20.283 A 14.065 14.065 0 0 1 478.6 20.2 Q 479.6 19.5 480.15 19.15 Q 480.7 18.8 481 18.25 A 4.757 4.757 0 0 0 481.218 17.789 Q 481.317 17.55 481.41 17.267 A 10.635 10.635 0 0 0 481.55 16.8 Q 481.8 15.9 482.2 14.1 Q 482.99 11.257 483.811 9.755 A 6.603 6.603 0 0 1 484.25 9.05 Q 485.255 7.662 486.948 7.603 A 4.353 4.353 0 0 1 487.1 7.6 A 4.807 4.807 0 0 1 488.002 7.679 Q 488.496 7.773 488.87 7.982 A 2.075 2.075 0 0 1 489.6 8.65 A 4.778 4.778 0 0 1 489.955 9.307 Q 490.447 10.382 490.985 12.447 A 47.774 47.774 0 0 1 491.1 12.9 Q 491.491 14.462 491.833 15.499 A 19.718 19.718 0 0 0 491.85 15.55 A 6.002 6.002 0 0 0 492.248 16.485 A 4.531 4.531 0 0 0 492.8 17.3 A 4.894 4.894 0 0 0 493.551 18.002 Q 493.926 18.288 494.386 18.542 A 8.09 8.09 0 0 0 494.4 18.55 A 10.136 10.136 0 0 0 495.103 18.899 Q 495.906 19.262 497.038 19.646 A 34.078 34.078 0 0 0 497.2 19.7 A 12.329 12.329 0 0 1 498.478 20.213 Q 500.7 21.266 500.7 22.7 Q 500.7 24.248 497.239 25.608 A 20.046 20.046 0 0 1 497 25.7 A 14.13 14.13 0 0 0 495.221 26.439 Q 493.264 27.426 492.459 28.797 A 4.221 4.221 0 0 0 492.4 28.9 A 11.821 11.821 0 0 0 491.571 31.215 Q 490.6 34.971 490.6 41.8 A 87.377 87.377 0 0 0 490.657 45.062 Q 490.842 50.015 491.643 52.089 A 3.566 3.566 0 0 0 492.2 53.1 Q 493.8 55.2 497.4 55.7 Q 498.938 55.871 499.819 56.389 A 2.206 2.206 0 0 1 501 58.4 A 2.795 2.795 0 0 1 500.32 60.21 Q 499.978 60.627 499.463 61.007 A 6.996 6.996 0 0 1 498.95 61.35 Q 496.9 62.6 494.3 62.6 Z" id="11" vector-effect="non-scaling-stroke"/><path d="M 529.3 63.3 L 527.4 63.3 A 21.483 21.483 0 0 1 522.979 62.863 A 17.389 17.389 0 0 1 519.5 61.75 Q 516 60.2 513.6 57.45 A 18.902 18.902 0 0 1 510.03 51.278 A 21.453 21.453 0 0 1 509.95 51.05 A 23.365 23.365 0 0 1 508.783 45.274 A 27.957 27.957 0 0 1 508.7 43.1 L 508.7 41.2 Q 508.7 36.7 510.2 32.8 A 19.952 19.952 0 0 1 514.111 26.411 A 19.216 19.216 0 0 1 514.45 26.05 Q 517.2 23.2 520.95 21.6 A 20.108 20.108 0 0 1 527.267 20.077 A 24.018 24.018 0 0 1 529.2 20 L 530.1 20 A 16.496 16.496 0 0 1 534.967 20.689 A 13.524 13.524 0 0 1 540.1 23.6 Q 542.3 25.7 543.45 28.65 A 19.228 19.228 0 0 1 544.195 30.956 Q 544.499 32.171 544.575 33.276 A 10.559 10.559 0 0 1 544.6 34 Q 544.6 36.541 544.027 38.031 A 5.497 5.497 0 0 1 544 38.1 A 4.672 4.672 0 0 1 542.333 40.189 A 6.024 6.024 0 0 1 541.85 40.5 Q 540.684 41.178 538.923 41.6 A 19.51 19.51 0 0 1 537.7 41.85 Q 535.23 42.278 531.495 42.751 A 255.27 255.27 0 0 1 531.1 42.8 Q 528.038 43.183 526.06 43.419 A 360.225 360.225 0 0 1 524.95 43.55 Q 522.8 43.8 522.3 43.9 A 9.579 9.579 0 0 0 520.859 44.405 Q 518.6 45.425 518.6 47.3 A 8.548 8.548 0 0 0 519.166 50.47 Q 519.942 52.431 521.781 53.812 A 9.698 9.698 0 0 0 521.9 53.9 A 12.022 12.022 0 0 0 526.214 55.841 Q 528.125 56.3 530.4 56.3 Q 532.082 56.3 535.174 55.531 A 59.656 59.656 0 0 0 536.8 55.1 Q 539.1 54.5 540.3 54.15 A 43.465 43.465 0 0 1 540.715 54.031 Q 541.436 53.829 541.65 53.804 A 0.446 0.446 0 0 1 541.7 53.8 A 3.328 3.328 0 0 1 542.558 53.901 Q 543.9 54.26 543.9 55.9 A 2.781 2.781 0 0 1 543.584 57.16 Q 543.373 57.579 543.022 57.998 A 6.454 6.454 0 0 1 542.55 58.5 Q 541.2 59.8 539.1 60.85 A 23.2 23.2 0 0 1 536.28 62.026 A 28.57 28.57 0 0 1 534.4 62.6 A 19.991 19.991 0 0 1 530.281 63.274 A 18.091 18.091 0 0 1 529.3 63.3 Z M 530.1 37.5 L 531 37.5 Q 531.602 37.5 532.351 37.427 A 20.195 20.195 0 0 0 532.6 37.4 Q 533.5 37.3 534.35 36.95 A 4.541 4.541 0 0 0 535.433 36.326 A 4.099 4.099 0 0 0 535.8 36 A 2.024 2.024 0 0 0 536.4 34.558 A 2.657 2.657 0 0 0 536.4 34.5 L 536.4 32.7 A 6.817 6.817 0 0 0 535.732 29.663 A 6.874 6.874 0 0 0 534.1 27.55 A 8.678 8.678 0 0 0 532.088 26.186 A 6.822 6.822 0 0 0 529.1 25.5 L 528 25.5 A 8.154 8.154 0 0 0 524.413 26.345 A 9.465 9.465 0 0 0 524.3 26.4 Q 522.5 27.3 521.15 28.8 Q 519.8 30.3 519 32.15 Q 518.2 34 518.2 36 L 518.2 36.8 A 1.229 1.229 0 0 0 518.991 37.971 Q 519.577 38.248 520.6 38.292 A 9.337 9.337 0 0 0 521 38.3 L 522 38.3 L 522.2 38.2 L 529.1 37.7 A 0.952 0.952 0 0 1 529.436 37.606 A 1.169 1.169 0 0 1 529.55 37.6 Q 529.8 37.6 530.1 37.5 Z" id="12" vector-effect="non-scaling-stroke"/></g></svg>