<svg width="647.217" height="76.954" viewBox="0 0 647.217 76.954" xmlns="http://www.w3.org/2000/svg"><g id="svgGroup" stroke-linecap="round" fill-rule="evenodd" font-size="9pt" stroke="#000" stroke-width="0.25mm" fill="#000" style="stroke:#000;stroke-width:0.25mm;fill:#000"><path d="M 80.957 4.59 L 91.211 4.59 L 72.363 75.977 L 61.768 75.977 L 48.73 30.566 A 94.957 94.957 0 0 1 48.193 28.687 A 117.062 117.062 0 0 1 47.656 26.66 A 522.792 522.792 0 0 1 46.606 22.485 A 118.496 118.496 0 0 1 46.163 20.631 Q 45.962 19.757 45.798 18.972 A 70.443 70.443 0 0 1 45.752 18.75 Q 45.41 17.09 45.264 16.211 A 15.825 15.825 0 0 1 45.201 16.698 Q 45.122 17.248 44.985 18 A 65.405 65.405 0 0 1 44.849 18.726 A 162.317 162.317 0 0 1 44.524 20.35 Q 44.325 21.323 44.092 22.412 A 117.221 117.221 0 0 1 43.115 26.587 A 165.517 165.517 0 0 1 42.578 28.656 A 142.062 142.062 0 0 1 42.041 30.615 L 29.297 75.977 L 18.75 75.977 L 0 4.59 L 10.205 4.59 L 21.094 47.9 Q 21.631 50.049 22.144 52.271 Q 22.656 54.492 23.096 56.714 A 140.283 140.283 0 0 1 23.7 59.964 A 125.453 125.453 0 0 1 23.877 61.011 A 654.005 654.005 0 0 1 24.207 63.031 A 552.117 552.117 0 0 1 24.512 64.941 A 73.99 73.99 0 0 1 24.792 62.97 A 91.224 91.224 0 0 1 25.146 60.864 Q 25.537 58.691 26.001 56.445 Q 26.465 54.199 27.002 52.002 A 99.723 99.723 0 0 1 27.835 48.816 A 88.251 88.251 0 0 1 28.125 47.803 L 40.332 4.59 L 50.342 4.59 L 62.988 48.047 A 129.593 129.593 0 0 1 63.853 51.233 A 146.445 146.445 0 0 1 64.136 52.344 A 111.511 111.511 0 0 1 65.161 56.836 A 174.759 174.759 0 0 1 65.601 59.033 A 151.294 151.294 0 0 1 65.991 61.133 A 377.143 377.143 0 0 1 66.339 63.11 A 298.478 298.478 0 0 1 66.65 64.941 A 119.337 119.337 0 0 1 67.035 62.402 A 150.501 150.501 0 0 1 67.505 59.668 A 135.378 135.378 0 0 1 68.37 55.31 A 151.505 151.505 0 0 1 68.701 53.809 A 854.965 854.965 0 0 1 70.068 47.852 L 80.957 4.59 Z" id="0" vector-effect="non-scaling-stroke"/><path d="M 100.635 22.168 L 110.449 22.168 L 110.449 75.977 L 100.635 75.977 L 100.635 22.168 Z M 107.857 2.17 A 6.71 6.71 0 0 0 105.615 1.807 A 7.691 7.691 0 0 0 104.745 1.855 A 5.837 5.837 0 0 0 101.587 3.174 Q 100.411 4.156 100.081 6.022 A 9.158 9.158 0 0 0 99.951 7.617 Q 99.951 10.693 101.587 12.085 A 5.637 5.637 0 0 0 103.602 13.191 A 6.815 6.815 0 0 0 105.615 13.477 A 7.681 7.681 0 0 0 105.924 13.47 A 6.058 6.058 0 0 0 109.644 12.085 A 4.067 4.067 0 0 0 110.624 10.891 Q 111.328 9.606 111.328 7.617 Q 111.328 4.541 109.644 3.174 A 5.952 5.952 0 0 0 107.857 2.17 Z" id="1" vector-effect="non-scaling-stroke"/><path d="M 137.061 0 L 137.061 75.977 L 127.197 75.977 L 127.197 0 L 137.061 0 Z" id="2" vector-effect="non-scaling-stroke"/><path d="M 163.623 0 L 163.623 75.977 L 153.76 75.977 L 153.76 0 L 163.623 0 Z" id="3" vector-effect="non-scaling-stroke"/><path d="M 180.322 22.168 L 190.137 22.168 L 190.137 75.977 L 180.322 75.977 L 180.322 22.168 Z M 187.544 2.17 A 6.71 6.71 0 0 0 185.303 1.807 A 7.691 7.691 0 0 0 184.432 1.855 A 5.837 5.837 0 0 0 181.274 3.174 Q 180.099 4.156 179.768 6.022 A 9.158 9.158 0 0 0 179.639 7.617 Q 179.639 10.693 181.274 12.085 A 5.637 5.637 0 0 0 183.29 13.191 A 6.815 6.815 0 0 0 185.303 13.477 A 7.681 7.681 0 0 0 185.611 13.47 A 6.058 6.058 0 0 0 189.331 12.085 A 4.067 4.067 0 0 0 190.312 10.891 Q 191.016 9.606 191.016 7.617 Q 191.016 4.541 189.331 3.174 A 5.952 5.952 0 0 0 187.544 2.17 Z" id="4" vector-effect="non-scaling-stroke"/><path d="M 247.314 39.6 L 247.314 75.977 L 240.283 75.977 L 238.379 68.164 L 237.988 68.164 A 31.63 31.63 0 0 1 235.547 71.001 A 24.62 24.62 0 0 1 233.301 73.047 A 16.582 16.582 0 0 1 228.254 75.785 A 19.017 19.017 0 0 1 227.661 75.977 A 20.406 20.406 0 0 1 224.715 76.627 Q 223.21 76.851 221.486 76.921 A 39.716 39.716 0 0 1 219.873 76.953 A 23.249 23.249 0 0 1 215.259 76.514 A 18.392 18.392 0 0 1 211.182 75.195 Q 207.373 73.438 205.2 69.897 A 13.832 13.832 0 0 1 203.571 65.875 Q 203.027 63.623 203.027 60.889 A 16.93 16.93 0 0 1 203.841 55.503 A 13.548 13.548 0 0 1 209.326 48.437 A 21.784 21.784 0 0 1 214.625 45.905 Q 220.173 44.051 228.418 43.799 L 237.695 43.408 L 237.695 40.381 Q 237.695 34.473 235.226 31.83 A 6.381 6.381 0 0 0 234.888 31.494 A 9.258 9.258 0 0 0 231.058 29.41 Q 229.634 29.009 227.935 28.927 A 18.425 18.425 0 0 0 227.051 28.906 A 26.402 26.402 0 0 0 219.092 30.103 A 57.438 57.438 0 0 0 211.768 32.959 L 208.643 25.83 A 40.029 40.029 0 0 1 213.259 23.834 A 51.158 51.158 0 0 1 217.31 22.559 A 38.598 38.598 0 0 1 227.158 21.242 A 42.793 42.793 0 0 1 227.49 21.24 A 35.82 35.82 0 0 1 232.961 21.63 Q 238.915 22.552 242.383 25.659 A 13.541 13.541 0 0 1 246.082 31.354 Q 246.871 33.586 247.155 36.343 A 31.823 31.823 0 0 1 247.314 39.6 Z M 237.598 54.688 L 237.598 49.854 L 230.078 50.195 A 53.052 53.052 0 0 0 225.761 50.517 Q 221.455 51.03 218.778 52.254 A 10.425 10.425 0 0 0 216.968 53.296 Q 213.184 56.055 213.184 60.986 A 11.243 11.243 0 0 0 213.424 63.392 Q 213.749 64.877 214.516 65.971 A 6.023 6.023 0 0 0 215.771 67.285 A 9.103 9.103 0 0 0 219.098 68.876 Q 220.386 69.21 221.898 69.273 A 17.157 17.157 0 0 0 222.607 69.287 A 19.05 19.05 0 0 0 227.541 68.679 A 14.397 14.397 0 0 0 233.374 65.601 A 11.778 11.778 0 0 0 236.991 59.656 Q 237.522 57.704 237.588 55.364 A 23.886 23.886 0 0 0 237.598 54.687 Z" id="5" vector-effect="non-scaling-stroke"/><path d="M 341.357 40.771 L 341.357 75.977 L 331.641 75.977 L 331.641 41.992 A 24.633 24.633 0 0 0 331.41 38.503 Q 330.865 34.702 329.028 32.471 Q 326.416 29.297 321.24 29.297 Q 316.256 29.297 313.16 31.343 A 9.719 9.719 0 0 0 310.669 33.716 Q 308.337 36.889 307.68 42.189 A 36.57 36.57 0 0 0 307.422 46.68 L 307.422 75.977 L 297.656 75.977 L 297.656 41.992 A 25.427 25.427 0 0 0 297.493 39.023 Q 297.318 37.533 296.953 36.275 A 12.524 12.524 0 0 0 296.484 34.937 A 9.844 9.844 0 0 0 295.092 32.551 A 8.089 8.089 0 0 0 293.018 30.713 A 8.998 8.998 0 0 0 290.326 29.629 Q 288.91 29.297 287.207 29.297 Q 282.178 29.297 279.175 31.47 A 10.997 10.997 0 0 0 275.949 35.214 A 15.281 15.281 0 0 0 274.829 37.891 A 26.265 26.265 0 0 0 273.935 41.814 Q 273.627 43.822 273.53 46.13 A 51.807 51.807 0 0 0 273.486 48.291 L 273.486 75.977 L 263.672 75.977 L 263.672 22.168 L 271.436 22.168 L 272.852 29.59 L 273.389 29.59 A 15.359 15.359 0 0 1 277.466 24.951 A 18.085 18.085 0 0 1 282.959 22.144 A 21.065 21.065 0 0 1 288.936 21.195 A 23.621 23.621 0 0 1 289.355 21.191 Q 294.703 21.191 298.566 22.906 A 15.987 15.987 0 0 1 299.561 23.389 A 13.329 13.329 0 0 1 305.664 30.078 L 306.299 30.078 Q 308.887 25.537 313.452 23.364 A 22.601 22.601 0 0 1 323.291 21.191 A 27.319 27.319 0 0 1 328.449 21.647 Q 333.653 22.649 336.792 25.854 A 13.949 13.949 0 0 1 339.832 30.784 Q 341.357 34.843 341.357 40.771 Z" id="6" vector-effect="non-scaling-stroke"/><path d="M 457.373 4.59 L 467.627 4.59 L 448.779 75.977 L 438.184 75.977 L 425.146 30.566 A 94.957 94.957 0 0 1 424.609 28.687 A 117.062 117.062 0 0 1 424.072 26.66 A 522.792 522.792 0 0 1 423.022 22.485 A 118.496 118.496 0 0 1 422.579 20.631 Q 422.378 19.757 422.214 18.972 A 70.443 70.443 0 0 1 422.168 18.75 Q 421.826 17.09 421.68 16.211 A 15.825 15.825 0 0 1 421.617 16.698 Q 421.538 17.248 421.401 18 A 65.405 65.405 0 0 1 421.265 18.726 A 162.317 162.317 0 0 1 420.94 20.35 Q 420.741 21.323 420.508 22.412 A 117.221 117.221 0 0 1 419.531 26.587 A 165.517 165.517 0 0 1 418.994 28.656 A 142.062 142.062 0 0 1 418.457 30.615 L 405.713 75.977 L 395.166 75.977 L 376.416 4.59 L 386.621 4.59 L 397.51 47.9 Q 398.047 50.049 398.56 52.271 Q 399.072 54.492 399.512 56.714 A 140.283 140.283 0 0 1 400.116 59.964 A 125.453 125.453 0 0 1 400.293 61.011 A 654.005 654.005 0 0 1 400.623 63.031 A 552.117 552.117 0 0 1 400.928 64.941 A 73.99 73.99 0 0 1 401.208 62.97 A 91.224 91.224 0 0 1 401.562 60.864 Q 401.953 58.691 402.417 56.445 Q 402.881 54.199 403.418 52.002 A 99.723 99.723 0 0 1 404.251 48.816 A 88.251 88.251 0 0 1 404.541 47.803 L 416.748 4.59 L 426.758 4.59 L 439.404 48.047 A 129.593 129.593 0 0 1 440.269 51.233 A 146.445 146.445 0 0 1 440.552 52.344 A 111.511 111.511 0 0 1 441.577 56.836 A 174.759 174.759 0 0 1 442.017 59.033 A 151.294 151.294 0 0 1 442.407 61.133 A 377.143 377.143 0 0 1 442.755 63.11 A 298.478 298.478 0 0 1 443.066 64.941 A 119.337 119.337 0 0 1 443.451 62.402 A 150.501 150.501 0 0 1 443.921 59.668 A 135.378 135.378 0 0 1 444.786 55.31 A 151.505 151.505 0 0 1 445.117 53.809 A 854.965 854.965 0 0 1 446.484 47.852 L 457.373 4.59 Z" id="8" vector-effect="non-scaling-stroke"/><path d="M 477.051 0 L 486.865 0 L 486.865 20.898 A 79.904 79.904 0 0 1 486.719 25.781 Q 486.572 28.174 486.377 29.785 L 486.963 29.785 A 16.372 16.372 0 0 1 491.108 25.132 A 15.809 15.809 0 0 1 491.187 25.073 A 17.933 17.933 0 0 1 496.502 22.364 A 20.32 20.32 0 0 1 496.899 22.241 A 23.346 23.346 0 0 1 502.997 21.297 A 26.311 26.311 0 0 1 503.662 21.289 A 32.199 32.199 0 0 1 508.371 21.615 Q 510.862 21.983 512.955 22.769 A 17.961 17.961 0 0 1 514.307 23.34 A 13.98 13.98 0 0 1 520.898 29.712 A 18.039 18.039 0 0 1 522.414 33.899 Q 522.871 35.832 523.042 38.09 A 37.436 37.436 0 0 1 523.145 40.918 L 523.145 75.977 L 513.428 75.977 L 513.428 42.236 A 23.495 23.495 0 0 0 513.178 38.691 Q 512.587 34.827 510.596 32.544 Q 507.764 29.297 501.904 29.297 A 22.675 22.675 0 0 0 498.343 29.559 Q 496.475 29.857 494.948 30.492 A 11.17 11.17 0 0 0 493.018 31.519 A 11.54 11.54 0 0 0 488.992 36.257 A 15.144 15.144 0 0 0 488.281 38.037 A 25.627 25.627 0 0 0 487.339 42.01 Q 486.865 44.971 486.865 48.584 L 486.865 75.977 L 477.051 75.977 L 477.051 0 Z" id="9" vector-effect="non-scaling-stroke"/><path d="M 539.502 22.168 L 549.316 22.168 L 549.316 75.977 L 539.502 75.977 L 539.502 22.168 Z M 546.724 2.17 A 6.71 6.71 0 0 0 544.482 1.807 A 7.691 7.691 0 0 0 543.612 1.855 A 5.837 5.837 0 0 0 540.454 3.174 Q 539.278 4.156 538.948 6.022 A 9.158 9.158 0 0 0 538.818 7.617 Q 538.818 10.693 540.454 12.085 A 5.637 5.637 0 0 0 542.47 13.191 A 6.815 6.815 0 0 0 544.482 13.477 A 7.681 7.681 0 0 0 544.791 13.47 A 6.058 6.058 0 0 0 548.511 12.085 A 4.067 4.067 0 0 0 549.491 10.891 Q 550.195 9.606 550.195 7.617 Q 550.195 4.541 548.511 3.174 A 5.952 5.952 0 0 0 546.724 2.17 Z" id="10" vector-effect="non-scaling-stroke"/><path d="M 592.773 67.676 L 592.773 75.195 Q 591.113 75.928 588.354 76.44 A 30.802 30.802 0 0 1 582.715 76.953 A 22.055 22.055 0 0 1 578.034 76.474 A 18.265 18.265 0 0 1 574.756 75.439 A 11.618 11.618 0 0 1 569.623 71.149 A 14.689 14.689 0 0 1 569.067 70.264 Q 566.943 66.602 566.943 60.107 L 566.943 29.736 L 559.473 29.736 L 559.473 25.195 L 567.285 21.582 L 570.752 9.961 L 576.807 9.961 L 576.807 22.168 L 592.383 22.168 L 592.383 29.736 L 576.807 29.736 L 576.807 59.961 Q 576.807 64.502 578.979 66.748 Q 581.152 68.994 584.814 68.994 A 25.246 25.246 0 0 0 589.063 68.628 A 25.536 25.536 0 0 0 590.83 68.265 Q 591.895 68.005 592.773 67.676 Z" id="11" vector-effect="non-scaling-stroke"/><path d="M 647.217 45.557 L 647.217 51.123 L 610.693 51.123 Q 610.84 59.766 615.137 64.38 A 14.028 14.028 0 0 0 622.476 68.497 A 21.183 21.183 0 0 0 627.197 68.994 A 46.11 46.11 0 0 0 631.757 68.78 Q 634.201 68.536 636.328 68.018 A 45.975 45.975 0 0 0 641.447 66.434 A 56.095 56.095 0 0 0 644.629 65.137 L 644.629 73.389 A 39.006 39.006 0 0 1 637.645 75.839 A 35.588 35.588 0 0 1 636.499 76.099 A 36.719 36.719 0 0 1 632.776 76.668 Q 630.032 76.953 626.758 76.953 Q 618.945 76.953 613.062 73.828 A 21.838 21.838 0 0 1 603.906 64.575 A 26.239 26.239 0 0 1 601.453 57.733 Q 600.788 54.663 600.664 51.122 A 47.196 47.196 0 0 1 600.635 49.463 Q 600.635 40.576 603.613 34.253 Q 606.592 27.93 612.012 24.561 A 22.237 22.237 0 0 1 620.787 21.458 A 28.697 28.697 0 0 1 624.756 21.191 A 27.61 27.61 0 0 1 630.525 21.766 A 20.535 20.535 0 0 1 636.816 24.194 Q 641.846 27.197 644.531 32.666 Q 647.217 38.135 647.217 45.557 Z M 610.889 43.799 L 637.354 43.799 A 25.214 25.214 0 0 0 637.018 39.869 A 18.515 18.515 0 0 0 635.937 35.986 A 12.203 12.203 0 0 0 633.892 32.58 A 10.914 10.914 0 0 0 631.812 30.713 A 10.212 10.212 0 0 0 628.432 29.227 Q 627.061 28.887 625.459 28.823 A 18.906 18.906 0 0 0 624.707 28.809 A 14.808 14.808 0 0 0 620.332 29.425 A 11.681 11.681 0 0 0 615.137 32.69 Q 612.092 35.961 611.162 41.606 A 29.227 29.227 0 0 0 610.889 43.799 Z" id="12" vector-effect="non-scaling-stroke"/></g></svg>