<svg width="276.672" height="34.561" viewBox="0 0 276.672 34.561" xmlns="http://www.w3.org/2000/svg"><g id="svgGroup" stroke-linecap="round" fill-rule="evenodd" font-size="9pt" stroke="#000" stroke-width="0.25mm" fill="#000" style="stroke:#000;stroke-width:0.25mm;fill:#000"><path d="M 8.736 34.08 L 8.016 34.08 Q 7.614 34.08 7.341 33.952 A 0.959 0.959 0 0 1 7.128 33.816 A 1.065 1.065 0 0 1 6.906 33.549 Q 6.828 33.418 6.767 33.251 A 2.719 2.719 0 0 1 6.672 32.928 L 0.096 2.016 A 3.955 3.955 0 0 1 0.05 1.808 A 3.138 3.138 0 0 1 0.024 1.656 A 6.876 6.876 0 0 1 0.016 1.597 Q 0.004 1.508 0.001 1.464 A 0.372 0.372 0 0 1 0 1.44 A 0.916 0.916 0 0 1 0.27 0.787 A 1.204 1.204 0 0 1 0.288 0.768 A 1.004 1.004 0 0 1 0.584 0.559 A 0.902 0.902 0 0 1 0.96 0.48 L 1.968 0.48 A 1.724 1.724 0 0 1 2.35 0.519 Q 2.887 0.641 3.012 1.148 A 1.157 1.157 0 0 1 3.024 1.2 L 8.64 28.56 L 14.592 9.024 Q 14.736 8.592 15.096 8.256 A 1.201 1.201 0 0 1 15.633 7.971 Q 15.836 7.92 16.08 7.92 L 17.136 7.92 A 2.142 2.142 0 0 1 17.514 7.951 Q 17.91 8.022 18.144 8.256 Q 18.48 8.592 18.624 9.024 L 24.576 28.56 L 30.192 1.2 A 0.884 0.884 0 0 1 30.372 0.801 Q 30.617 0.506 31.15 0.482 A 2.155 2.155 0 0 1 31.248 0.48 L 32.256 0.48 A 0.916 0.916 0 0 1 32.909 0.75 A 1.204 1.204 0 0 1 32.928 0.768 A 1.004 1.004 0 0 1 33.137 1.064 A 0.902 0.902 0 0 1 33.216 1.44 A 0.393 0.393 0 0 1 33.215 1.467 Q 33.211 1.524 33.192 1.654 A 8.18 8.18 0 0 1 33.192 1.656 A 3.232 3.232 0 0 1 33.157 1.853 A 4.068 4.068 0 0 1 33.12 2.016 L 26.544 32.928 Q 26.4 33.552 26.088 33.816 A 1.024 1.024 0 0 1 25.727 34.009 Q 25.499 34.08 25.2 34.08 L 24.48 34.08 Q 23.938 34.08 23.587 33.825 A 1.18 1.18 0 0 1 23.544 33.792 A 1.472 1.472 0 0 1 23.22 33.422 Q 23.115 33.256 23.035 33.048 A 2.778 2.778 0 0 1 22.992 32.928 L 16.608 12.672 L 10.224 32.928 A 2.413 2.413 0 0 1 10.057 33.318 Q 9.943 33.529 9.794 33.682 A 1.334 1.334 0 0 1 9.672 33.792 Q 9.312 34.08 8.736 34.08 Z" id="0" vector-effect="non-scaling-stroke"/><path d="M 41.28 34.08 L 40.464 34.08 Q 39.984 34.08 39.696 33.792 A 0.964 0.964 0 0 1 39.428 33.266 A 1.375 1.375 0 0 1 39.408 33.024 L 39.408 10.176 Q 39.408 9.696 39.696 9.408 A 0.964 0.964 0 0 1 40.223 9.14 A 1.375 1.375 0 0 1 40.464 9.12 L 41.28 9.12 Q 41.76 9.12 42.048 9.408 A 0.964 0.964 0 0 1 42.316 9.935 A 1.375 1.375 0 0 1 42.336 10.176 L 42.336 33.024 Q 42.336 33.504 42.048 33.792 A 0.964 0.964 0 0 1 41.521 34.06 A 1.375 1.375 0 0 1 41.28 34.08 Z M 41.76 3.984 L 39.936 3.984 Q 39.456 3.984 39.168 3.696 A 0.964 0.964 0 0 1 38.9 3.17 A 1.375 1.375 0 0 1 38.88 2.928 L 38.88 1.104 Q 38.88 0.624 39.168 0.312 A 0.955 0.955 0 0 1 39.777 0.009 A 1.337 1.337 0 0 1 39.936 0 L 41.76 0 A 1.208 1.208 0 0 1 42.154 0.062 A 1.029 1.029 0 0 1 42.552 0.312 Q 42.864 0.624 42.864 1.104 L 42.864 2.928 A 1.195 1.195 0 0 1 42.816 3.274 A 0.929 0.929 0 0 1 42.552 3.696 A 1.099 1.099 0 0 1 42.547 3.701 Q 42.297 3.929 41.94 3.973 A 1.452 1.452 0 0 1 41.76 3.984 Z" id="1" vector-effect="non-scaling-stroke"/><path d="M 52.032 34.08 L 51.216 34.08 Q 50.736 34.08 50.448 33.792 A 0.964 0.964 0 0 1 50.18 33.266 A 1.375 1.375 0 0 1 50.16 33.024 L 50.16 1.056 Q 50.16 0.576 50.448 0.288 A 0.964 0.964 0 0 1 50.975 0.02 A 1.375 1.375 0 0 1 51.216 0 L 52.032 0 Q 52.512 0 52.8 0.288 A 0.964 0.964 0 0 1 53.068 0.815 A 1.375 1.375 0 0 1 53.088 1.056 L 53.088 33.024 Q 53.088 33.504 52.8 33.792 A 0.964 0.964 0 0 1 52.273 34.06 A 1.375 1.375 0 0 1 52.032 34.08 Z" id="2" vector-effect="non-scaling-stroke"/><path d="M 62.832 34.08 L 62.016 34.08 Q 61.536 34.08 61.248 33.792 A 0.964 0.964 0 0 1 60.98 33.266 A 1.375 1.375 0 0 1 60.96 33.024 L 60.96 1.056 Q 60.96 0.576 61.248 0.288 A 0.964 0.964 0 0 1 61.775 0.02 A 1.375 1.375 0 0 1 62.016 0 L 62.832 0 Q 63.312 0 63.6 0.288 A 0.964 0.964 0 0 1 63.868 0.815 A 1.375 1.375 0 0 1 63.888 1.056 L 63.888 33.024 Q 63.888 33.504 63.6 33.792 A 0.964 0.964 0 0 1 63.073 34.06 A 1.375 1.375 0 0 1 62.832 34.08 Z" id="3" vector-effect="non-scaling-stroke"/><path d="M 73.584 34.08 L 72.768 34.08 Q 72.288 34.08 72 33.792 A 0.964 0.964 0 0 1 71.732 33.266 A 1.375 1.375 0 0 1 71.712 33.024 L 71.712 10.176 Q 71.712 9.696 72 9.408 A 0.964 0.964 0 0 1 72.527 9.14 A 1.375 1.375 0 0 1 72.768 9.12 L 73.584 9.12 Q 74.064 9.12 74.352 9.408 A 0.964 0.964 0 0 1 74.62 9.935 A 1.375 1.375 0 0 1 74.64 10.176 L 74.64 33.024 Q 74.64 33.504 74.352 33.792 A 0.964 0.964 0 0 1 73.825 34.06 A 1.375 1.375 0 0 1 73.584 34.08 Z M 74.064 3.984 L 72.24 3.984 Q 71.76 3.984 71.472 3.696 A 0.964 0.964 0 0 1 71.204 3.17 A 1.375 1.375 0 0 1 71.184 2.928 L 71.184 1.104 Q 71.184 0.624 71.472 0.312 A 0.955 0.955 0 0 1 72.081 0.009 A 1.337 1.337 0 0 1 72.24 0 L 74.064 0 A 1.208 1.208 0 0 1 74.458 0.062 A 1.029 1.029 0 0 1 74.856 0.312 Q 75.168 0.624 75.168 1.104 L 75.168 2.928 A 1.195 1.195 0 0 1 75.12 3.274 A 0.929 0.929 0 0 1 74.856 3.696 A 1.099 1.099 0 0 1 74.851 3.701 Q 74.601 3.929 74.244 3.973 A 1.452 1.452 0 0 1 74.064 3.984 Z" id="4" vector-effect="non-scaling-stroke"/><path d="M 90.048 19.632 L 97.632 18.576 L 97.632 16.896 A 6.699 6.699 0 0 0 97.431 15.207 A 4.748 4.748 0 0 0 96.072 12.888 A 4.665 4.665 0 0 0 94.5 11.94 Q 93.781 11.67 92.885 11.541 A 12.566 12.566 0 0 0 91.104 11.424 Q 89.222 11.424 87.886 11.983 A 5.297 5.297 0 0 0 87.072 12.408 A 5.46 5.46 0 0 0 85.711 13.623 A 4.852 4.852 0 0 0 84.96 14.976 A 1.371 1.371 0 0 1 84.802 15.308 Q 84.542 15.696 84.048 15.696 L 83.28 15.696 Q 82.931 15.696 82.705 15.582 A 0.698 0.698 0 0 1 82.464 15.384 A 1.155 1.155 0 0 1 82.229 14.759 A 1.47 1.47 0 0 1 82.224 14.64 A 2.345 2.345 0 0 1 82.284 14.138 Q 82.397 13.622 82.728 12.96 A 5.922 5.922 0 0 1 83.358 11.974 Q 83.752 11.468 84.288 10.968 Q 85.344 9.984 87.024 9.312 A 8.764 8.764 0 0 1 88.741 8.833 Q 89.55 8.688 90.475 8.652 A 16.14 16.14 0 0 1 91.104 8.64 A 17.207 17.207 0 0 1 93.051 8.744 Q 94.022 8.854 94.841 9.084 A 8.266 8.266 0 0 1 95.784 9.408 A 9.135 9.135 0 0 1 97.198 10.137 Q 97.999 10.649 98.569 11.29 A 5.629 5.629 0 0 1 98.664 11.4 Q 99.696 12.624 100.128 14.112 A 10.692 10.692 0 0 1 100.544 16.476 A 9.708 9.708 0 0 1 100.56 17.04 L 100.56 33.024 Q 100.56 33.504 100.272 33.792 A 0.964 0.964 0 0 1 99.745 34.06 A 1.375 1.375 0 0 1 99.504 34.08 L 98.688 34.08 Q 98.208 34.08 97.92 33.792 A 0.964 0.964 0 0 1 97.652 33.266 A 1.375 1.375 0 0 1 97.632 33.024 L 97.632 30.768 Q 97.134 31.516 96.276 32.263 A 11.591 11.591 0 0 1 96 32.496 Q 95.049 33.274 93.612 33.838 A 13.168 13.168 0 0 1 93.288 33.96 Q 92.001 34.426 90.206 34.53 A 18.537 18.537 0 0 1 89.136 34.56 A 9.645 9.645 0 0 1 85.756 33.974 A 9.116 9.116 0 0 1 84.888 33.6 A 8.949 8.949 0 0 1 82.612 32.018 A 8.128 8.128 0 0 1 81.744 31.032 Q 80.544 29.424 80.544 27.408 A 6.493 6.493 0 0 1 81.124 24.633 Q 81.739 23.313 83.006 22.312 A 8.117 8.117 0 0 1 83.184 22.176 Q 85.824 20.208 90.048 19.632 Z M 97.632 22.848 L 97.632 21.216 L 91.44 22.08 A 25.01 25.01 0 0 0 89.194 22.479 Q 86.979 22.986 85.607 23.829 A 6.972 6.972 0 0 0 85.488 23.904 A 5.44 5.44 0 0 0 84.447 24.756 A 3.427 3.427 0 0 0 83.472 27.168 A 4.496 4.496 0 0 0 83.621 28.355 A 3.395 3.395 0 0 0 84.384 29.76 A 5.434 5.434 0 0 0 86.188 31.061 A 6.636 6.636 0 0 0 86.712 31.272 Q 88.128 31.776 89.616 31.776 Q 91.824 31.776 93.648 30.816 A 6.806 6.806 0 0 0 96.196 28.461 A 8.482 8.482 0 0 0 96.552 27.864 A 8.307 8.307 0 0 0 97.327 25.77 Q 97.632 24.455 97.632 22.848 Z" id="5" vector-effect="non-scaling-stroke"/><path d="M 110.016 34.08 L 109.2 34.08 Q 108.72 34.08 108.432 33.792 A 0.964 0.964 0 0 1 108.164 33.266 A 1.375 1.375 0 0 1 108.144 33.024 L 108.144 10.176 Q 108.144 9.696 108.432 9.408 A 0.964 0.964 0 0 1 108.959 9.14 A 1.375 1.375 0 0 1 109.2 9.12 L 110.016 9.12 Q 110.496 9.12 110.784 9.408 A 0.964 0.964 0 0 1 111.052 9.935 A 1.375 1.375 0 0 1 111.072 10.176 L 111.072 11.856 Q 112.272 10.32 113.928 9.48 A 7.434 7.434 0 0 1 115.876 8.826 Q 116.829 8.64 117.936 8.64 A 9.932 9.932 0 0 1 121.116 9.12 Q 123.914 10.061 125.455 12.849 A 10.444 10.444 0 0 1 125.616 13.152 A 8.203 8.203 0 0 1 128.839 9.874 A 9.795 9.795 0 0 1 128.856 9.864 Q 130.992 8.64 133.776 8.64 Q 136.32 8.64 138.36 9.816 Q 140.4 10.992 141.576 13.296 A 10.011 10.011 0 0 1 142.42 15.709 Q 142.669 16.842 142.731 18.158 A 19.009 19.009 0 0 1 142.752 19.056 L 142.752 33.024 Q 142.752 33.504 142.464 33.792 A 0.964 0.964 0 0 1 141.937 34.06 A 1.375 1.375 0 0 1 141.696 34.08 L 140.88 34.08 Q 140.4 34.08 140.112 33.792 A 0.964 0.964 0 0 1 139.844 33.266 A 1.375 1.375 0 0 1 139.824 33.024 L 139.824 19.536 A 17.763 17.763 0 0 0 139.735 17.694 Q 139.539 15.821 138.912 14.616 A 6.531 6.531 0 0 0 138.058 13.342 A 4.817 4.817 0 0 0 136.512 12.144 Q 135.024 11.424 133.296 11.424 A 6.259 6.259 0 0 0 131.293 11.764 A 7.912 7.912 0 0 0 130.368 12.144 A 5.14 5.14 0 0 0 128.705 13.447 A 7.184 7.184 0 0 0 127.896 14.616 Q 126.912 16.368 126.912 19.536 L 126.912 33.024 Q 126.912 33.504 126.624 33.792 A 0.964 0.964 0 0 1 126.097 34.06 A 1.375 1.375 0 0 1 125.856 34.08 L 125.04 34.08 Q 124.56 34.08 124.272 33.792 A 0.964 0.964 0 0 1 124.004 33.266 A 1.375 1.375 0 0 1 123.984 33.024 L 123.984 19.536 Q 123.984 17.525 123.597 16.085 A 6.624 6.624 0 0 0 123.024 14.616 A 6.881 6.881 0 0 0 122.138 13.342 A 4.999 4.999 0 0 0 120.576 12.144 Q 119.088 11.424 117.456 11.424 A 6.259 6.259 0 0 0 115.453 11.764 A 7.912 7.912 0 0 0 114.528 12.144 A 5.14 5.14 0 0 0 112.865 13.447 A 7.184 7.184 0 0 0 112.056 14.616 Q 111.072 16.368 111.072 19.488 L 111.072 33.024 Q 111.072 33.504 110.784 33.792 A 0.964 0.964 0 0 1 110.257 34.06 A 1.375 1.375 0 0 1 110.016 34.08 Z" id="6" vector-effect="non-scaling-stroke"/><path d="M 169.824 34.08 L 169.104 34.08 Q 168.702 34.08 168.429 33.952 A 0.959 0.959 0 0 1 168.216 33.816 A 1.065 1.065 0 0 1 167.994 33.549 Q 167.916 33.418 167.855 33.251 A 2.719 2.719 0 0 1 167.76 32.928 L 161.184 2.016 A 3.955 3.955 0 0 1 161.138 1.808 A 3.138 3.138 0 0 1 161.112 1.656 A 6.876 6.876 0 0 1 161.104 1.597 Q 161.092 1.508 161.089 1.464 A 0.372 0.372 0 0 1 161.088 1.44 A 0.916 0.916 0 0 1 161.358 0.787 A 1.204 1.204 0 0 1 161.376 0.768 A 1.004 1.004 0 0 1 161.672 0.559 A 0.902 0.902 0 0 1 162.048 0.48 L 163.056 0.48 A 1.724 1.724 0 0 1 163.438 0.519 Q 163.975 0.641 164.1 1.148 A 1.157 1.157 0 0 1 164.112 1.2 L 169.728 28.56 L 175.68 9.024 Q 175.824 8.592 176.184 8.256 A 1.201 1.201 0 0 1 176.721 7.971 Q 176.924 7.92 177.168 7.92 L 178.224 7.92 A 2.142 2.142 0 0 1 178.602 7.951 Q 178.998 8.022 179.232 8.256 Q 179.568 8.592 179.712 9.024 L 185.664 28.56 L 191.28 1.2 A 0.884 0.884 0 0 1 191.46 0.801 Q 191.705 0.506 192.238 0.482 A 2.155 2.155 0 0 1 192.336 0.48 L 193.344 0.48 A 0.916 0.916 0 0 1 193.997 0.75 A 1.204 1.204 0 0 1 194.016 0.768 A 1.004 1.004 0 0 1 194.225 1.064 A 0.902 0.902 0 0 1 194.304 1.44 A 0.393 0.393 0 0 1 194.303 1.467 Q 194.299 1.524 194.28 1.654 A 8.18 8.18 0 0 1 194.28 1.656 A 3.232 3.232 0 0 1 194.245 1.853 A 4.068 4.068 0 0 1 194.208 2.016 L 187.632 32.928 Q 187.488 33.552 187.176 33.816 A 1.024 1.024 0 0 1 186.815 34.009 Q 186.587 34.08 186.288 34.08 L 185.568 34.08 Q 185.026 34.08 184.675 33.825 A 1.18 1.18 0 0 1 184.632 33.792 A 1.472 1.472 0 0 1 184.308 33.422 Q 184.203 33.256 184.123 33.048 A 2.778 2.778 0 0 1 184.08 32.928 L 177.696 12.672 L 171.312 32.928 A 2.413 2.413 0 0 1 171.145 33.318 Q 171.031 33.529 170.882 33.682 A 1.334 1.334 0 0 1 170.76 33.792 Q 170.4 34.08 169.824 34.08 Z" id="8" vector-effect="non-scaling-stroke"/><path d="M 202.416 34.08 L 201.6 34.08 Q 201.12 34.08 200.832 33.792 A 0.964 0.964 0 0 1 200.564 33.266 A 1.375 1.375 0 0 1 200.544 33.024 L 200.544 1.056 Q 200.544 0.576 200.832 0.288 A 0.964 0.964 0 0 1 201.359 0.02 A 1.375 1.375 0 0 1 201.6 0 L 202.416 0 Q 202.896 0 203.184 0.288 A 0.964 0.964 0 0 1 203.452 0.815 A 1.375 1.375 0 0 1 203.472 1.056 L 203.472 12.432 Q 204.768 10.752 206.616 9.696 Q 208.464 8.64 211.536 8.64 A 12.44 12.44 0 0 1 213.966 8.865 Q 215.504 9.171 216.724 9.895 A 7.671 7.671 0 0 1 216.984 10.056 Q 219.168 11.472 220.248 13.896 A 12.388 12.388 0 0 1 221.2 17.357 A 15.748 15.748 0 0 1 221.328 19.392 L 221.328 33.024 Q 221.328 33.504 221.04 33.792 A 0.964 0.964 0 0 1 220.513 34.06 A 1.375 1.375 0 0 1 220.272 34.08 L 219.456 34.08 Q 218.976 34.08 218.688 33.792 A 0.964 0.964 0 0 1 218.42 33.266 A 1.375 1.375 0 0 1 218.4 33.024 L 218.4 19.632 A 12.702 12.702 0 0 0 218.184 17.213 Q 217.911 15.81 217.296 14.711 A 6.771 6.771 0 0 0 216.528 13.608 A 6.025 6.025 0 0 0 213.28 11.671 Q 212.281 11.428 211.094 11.424 A 11.779 11.779 0 0 0 211.056 11.424 A 8.638 8.638 0 0 0 208.55 11.771 A 6.783 6.783 0 0 0 205.56 13.608 Q 203.472 15.792 203.472 19.632 L 203.472 33.024 Q 203.472 33.504 203.184 33.792 A 0.964 0.964 0 0 1 202.657 34.06 A 1.375 1.375 0 0 1 202.416 34.08 Z" id="9" vector-effect="non-scaling-stroke"/><path d="M 230.736 34.08 L 229.92 34.08 Q 229.44 34.08 229.152 33.792 A 0.964 0.964 0 0 1 228.884 33.266 A 1.375 1.375 0 0 1 228.864 33.024 L 228.864 10.176 Q 228.864 9.696 229.152 9.408 A 0.964 0.964 0 0 1 229.679 9.14 A 1.375 1.375 0 0 1 229.92 9.12 L 230.736 9.12 Q 231.216 9.12 231.504 9.408 A 0.964 0.964 0 0 1 231.772 9.935 A 1.375 1.375 0 0 1 231.792 10.176 L 231.792 33.024 Q 231.792 33.504 231.504 33.792 A 0.964 0.964 0 0 1 230.977 34.06 A 1.375 1.375 0 0 1 230.736 34.08 Z M 231.216 3.984 L 229.392 3.984 Q 228.912 3.984 228.624 3.696 A 0.964 0.964 0 0 1 228.356 3.17 A 1.375 1.375 0 0 1 228.336 2.928 L 228.336 1.104 Q 228.336 0.624 228.624 0.312 A 0.955 0.955 0 0 1 229.233 0.009 A 1.337 1.337 0 0 1 229.392 0 L 231.216 0 A 1.208 1.208 0 0 1 231.61 0.062 A 1.029 1.029 0 0 1 232.008 0.312 Q 232.32 0.624 232.32 1.104 L 232.32 2.928 A 1.195 1.195 0 0 1 232.272 3.274 A 0.929 0.929 0 0 1 232.008 3.696 A 1.099 1.099 0 0 1 232.003 3.701 Q 231.753 3.929 231.396 3.973 A 1.452 1.452 0 0 1 231.216 3.984 Z" id="10" vector-effect="non-scaling-stroke"/><path d="M 250.8 34.08 L 247.968 34.08 Q 245.472 34.08 244.032 33.024 A 5.469 5.469 0 0 1 242.096 30.383 A 6.77 6.77 0 0 1 242.016 30.144 A 12.221 12.221 0 0 1 241.535 27.826 A 15.764 15.764 0 0 1 241.44 26.064 L 241.44 11.904 L 237.696 11.904 Q 237.216 11.904 236.928 11.616 A 0.964 0.964 0 0 1 236.66 11.09 A 1.375 1.375 0 0 1 236.64 10.848 L 236.64 10.176 Q 236.64 9.696 236.928 9.408 A 0.964 0.964 0 0 1 237.455 9.14 A 1.375 1.375 0 0 1 237.696 9.12 L 241.44 9.12 L 241.44 1.056 Q 241.44 0.576 241.728 0.288 A 0.964 0.964 0 0 1 242.255 0.02 A 1.375 1.375 0 0 1 242.496 0 L 243.312 0 Q 243.792 0 244.08 0.288 A 0.964 0.964 0 0 1 244.348 0.815 A 1.375 1.375 0 0 1 244.368 1.056 L 244.368 9.12 L 250.32 9.12 Q 250.8 9.12 251.088 9.408 A 0.964 0.964 0 0 1 251.356 9.935 A 1.375 1.375 0 0 1 251.376 10.176 L 251.376 10.848 Q 251.376 11.328 251.088 11.616 A 0.964 0.964 0 0 1 250.561 11.884 A 1.375 1.375 0 0 1 250.32 11.904 L 244.368 11.904 L 244.368 25.872 Q 244.368 27.542 244.73 28.736 A 5.22 5.22 0 0 0 245.208 29.856 A 2.745 2.745 0 0 0 246.933 31.141 Q 247.428 31.277 248.033 31.294 A 6.241 6.241 0 0 0 248.208 31.296 L 250.8 31.296 Q 251.28 31.296 251.568 31.584 A 0.964 0.964 0 0 1 251.836 32.111 A 1.375 1.375 0 0 1 251.856 32.352 L 251.856 33.024 Q 251.856 33.504 251.568 33.792 A 0.964 0.964 0 0 1 251.041 34.06 A 1.375 1.375 0 0 1 250.8 34.08 Z" id="11" vector-effect="non-scaling-stroke"/><path d="M 276.672 21.024 L 276.672 21.744 A 1.195 1.195 0 0 1 276.624 22.09 A 0.929 0.929 0 0 1 276.36 22.512 A 1.075 1.075 0 0 1 275.744 22.79 A 1.455 1.455 0 0 1 275.568 22.8 L 258.48 22.8 L 258.48 22.992 L 258.48 23.28 Q 258.576 25.44 259.488 27.384 Q 260.4 29.328 262.08 30.552 Q 263.76 31.776 266.064 31.776 Q 267.685 31.776 268.876 31.391 A 5.748 5.748 0 0 0 269.496 31.152 A 11.179 11.179 0 0 0 270.481 30.646 Q 271.183 30.237 271.68 29.784 Q 272.482 29.052 272.728 28.669 A 1.424 1.424 0 0 0 272.736 28.656 Q 273.128 28.091 273.361 27.939 A 0.485 0.485 0 0 1 273.408 27.912 A 0.857 0.857 0 0 1 273.576 27.851 Q 273.805 27.792 274.176 27.792 L 274.944 27.792 A 1.181 1.181 0 0 1 275.381 27.871 A 1.096 1.096 0 0 1 275.688 28.056 A 0.751 0.751 0 0 1 275.901 28.339 Q 275.978 28.522 275.952 28.752 A 1.926 1.926 0 0 1 275.851 29.227 Q 275.7 29.674 275.334 30.225 A 7.728 7.728 0 0 1 275.208 30.408 Q 274.607 31.258 273.577 32.089 A 13.097 13.097 0 0 1 273.24 32.352 A 9.722 9.722 0 0 1 271.647 33.32 A 13.016 13.016 0 0 1 270.144 33.936 A 11.467 11.467 0 0 1 267.728 34.469 A 14.657 14.657 0 0 1 266.064 34.56 Q 261.408 34.56 258.672 31.512 A 11.808 11.808 0 0 1 256.113 26.762 A 16.611 16.611 0 0 1 255.552 23.52 A 17.477 17.477 0 0 1 255.527 23.023 Q 255.504 22.425 255.504 21.6 Q 255.504 20.576 255.539 19.901 A 15.022 15.022 0 0 1 255.552 19.68 A 16.538 16.538 0 0 1 256.093 16.473 A 13.127 13.127 0 0 1 257.088 13.92 A 9.824 9.824 0 0 1 259.681 10.719 A 9.547 9.547 0 0 1 260.664 10.032 A 9.407 9.407 0 0 1 264.151 8.783 A 12.37 12.37 0 0 1 266.064 8.64 Q 269.424 8.64 271.776 10.128 Q 274.128 11.616 275.4 14.4 Q 276.634 17.101 276.671 20.796 A 22.905 22.905 0 0 1 276.672 21.024 Z M 258.48 19.92 L 258.48 20.112 L 273.744 20.112 L 273.744 19.92 A 10.855 10.855 0 0 0 273.455 17.372 A 9.063 9.063 0 0 0 272.832 15.6 Q 271.92 13.68 270.192 12.552 A 6.877 6.877 0 0 0 267.438 11.525 A 9.066 9.066 0 0 0 266.064 11.424 A 8.522 8.522 0 0 0 264.04 11.654 A 6.546 6.546 0 0 0 261.96 12.552 Q 260.256 13.68 259.368 15.6 A 9.627 9.627 0 0 0 258.551 18.604 A 11.964 11.964 0 0 0 258.48 19.92 Z" id="12" vector-effect="non-scaling-stroke"/></g></svg>